<svg width="224" height="222" viewBox="0 0 224 222" fill="none" xmlns="http://www.w3.org/2000/svg">
<mask id="path-1-inside-1_3469_19304" fill="white">
<path d="M197.069 109.534C197.069 156.773 158.774 195.068 111.534 195.068C64.2952 195.068 26.0001 156.773 26.0001 109.534C26.0001 62.2945 64.2952 23.9995 111.534 23.9995C158.774 23.9995 197.069 62.2945 197.069 109.534ZM38.8759 109.534C38.8759 149.662 71.4063 182.192 111.534 182.192C151.663 182.192 184.193 149.662 184.193 109.534C184.193 69.4056 151.663 36.8753 111.534 36.8753C71.4063 36.8753 38.8759 69.4056 38.8759 109.534Z"/>
</mask>
<path d="M197.069 109.534C197.069 156.773 158.774 195.068 111.534 195.068C64.2952 195.068 26.0001 156.773 26.0001 109.534C26.0001 62.2945 64.2952 23.9995 111.534 23.9995C158.774 23.9995 197.069 62.2945 197.069 109.534ZM38.8759 109.534C38.8759 149.662 71.4063 182.192 111.534 182.192C151.663 182.192 184.193 149.662 184.193 109.534C184.193 69.4056 151.663 36.8753 111.534 36.8753C71.4063 36.8753 38.8759 69.4056 38.8759 109.534Z" stroke="#FCBF16" stroke-width="2" mask="url(#path-1-inside-1_3469_19304)"/>
<path d="M103.754 19.9653L111.635 1.28625L119.516 19.9653H103.754Z" stroke="#FFD028"/>
<path d="M119.247 201.444L111.366 220.123L103.485 201.444H119.247Z" stroke="#FFD028"/>
<path d="M19.9653 117.247L1.28625 109.366L19.9653 101.485V117.247Z" stroke="#FFD028"/>
<path d="M203.714 101.753L222.393 109.634L203.714 117.514V101.753Z" stroke="#FFD028"/>
</svg>
