<svg width="257" height="114" viewBox="0 0 257 114" fill="none" xmlns="http://www.w3.org/2000/svg">
<path d="M4 16L15 4L234 2L251.5 23.5V68L240 89.5H143L126.5 106L113.5 89.5H18.5L4 77V16Z" fill="white"/>
<path fill-rule="evenodd" clip-rule="evenodd" d="M8 0H19H236V3H247V10H254V21H257V71V81V82H246V92H236V94H147V97H141V104H133V114H122V104H115V95H112H110H98H95H19V92H9V85H4V81H0V21H2V10H8V0ZM138 86H144H147H160H234V81H241V71H248V21H242V13H236V6H19V10H10V21H6V74H14V82H20V86H95H98H110H112H118V94H124V102H131V94H137V86H138Z" fill="#0E5A7E"/>
</svg>
