<svg width="155" height="180" viewBox="0 0 155 180" fill="none" xmlns="http://www.w3.org/2000/svg">
<path d="M8.07835 16.6849L2.68823 20.7871L3.32058 21.5968L8.7107 17.4946L8.07835 16.6849Z" fill="#4F1B19"/>
<path d="M12.9751 24.5904L9.87744 28.4102L10.686 29.0491L13.7836 25.2294L12.9751 24.5904Z" fill="#4F1B19"/>
<path d="M27.9383 14.3599L23.618 17.2441L24.1982 18.0911L28.5185 15.2068L27.9383 14.3599Z" fill="#4F1B19"/>
<path d="M21.434 2.26231L17.4991 8.66113L18.3845 9.19169L22.3193 2.79286L21.434 2.26231Z" fill="#4F1B19"/>
<path d="M145.533 111.743C159.995 130.293 156.518 156.912 137.728 171.19C118.938 185.467 91.9726 182.035 77.51 163.485C63.0473 144.935 67.9298 120.105 86.7202 105.828C105.511 91.5504 131.07 93.2301 145.533 111.78V111.743Z" fill="#F37955"/>
<path d="M93.5636 125.984L102.848 116.965C103.736 116.125 103.773 114.737 102.996 113.824L22.2489 18.3742C21.5831 17.5709 20.3995 17.3152 19.4378 17.7534L15.5909 19.5427C14.2593 20.1634 13.8154 21.8431 14.6662 23.0116L89.9756 125.728C90.8264 126.86 92.4909 127.006 93.5266 126.02L93.5636 125.984Z" fill="#4F1B19"/>
<path d="M103.624 149.317L124.56 130.804C125.041 130.365 125.781 130.475 126.113 131.023L129.59 136.646C129.886 137.121 129.738 137.705 129.294 137.997L107.323 153.005C106.916 153.26 106.398 153.224 106.065 152.932L103.624 150.777C103.18 150.376 103.18 149.682 103.624 149.28V149.317Z" fill="#351011"/>
<path d="M17.6245 29.4382L27.3895 23.3402C28.5362 22.6099 28.9061 21.1128 28.1663 19.9808L17.2546 2.89181C16.3668 1.46773 14.3325 1.35818 13.2598 2.63621L3.49469 14.1384C2.71793 15.0513 2.75491 16.3658 3.49469 17.2787L14.4064 29C15.2202 29.9129 16.5518 30.132 17.6245 29.4747V29.4382Z" fill="#F37955"/>
<path d="M0.16645 20.967L3.0146 23.8882C3.19954 24.0708 3.53244 24.1073 3.71739 23.8882L4.82706 22.8293C5.012 22.6467 5.04899 22.3546 4.86404 22.172L2.42278 19.0317C2.23783 18.8126 1.90493 18.7761 1.683 18.9587L0.16645 20.2367C-0.0554834 20.4193 -0.0554834 20.7479 0.16645 20.967Z" fill="#4F1B19"/>
<path d="M7.34228 29.0003L10.6713 31.3373C10.8932 31.4834 11.2261 31.4468 11.3741 31.2278L12.2618 29.9863C12.4098 29.7672 12.3728 29.475 12.1878 29.329L9.19173 26.6999C8.96979 26.5173 8.63689 26.5538 8.45195 26.7729L7.23131 28.3066C7.04637 28.5257 7.08336 28.8543 7.34228 29.0369V29.0003Z" fill="#4F1B19"/>
<path d="M19.4375 2.41735L22.7665 4.7543C22.9884 4.90036 23.3213 4.86385 23.4693 4.64476L24.357 3.40325C24.505 3.18416 24.468 2.89204 24.283 2.74598L21.2869 0.116898C21.065 -0.0656769 20.7321 -0.0291602 20.5472 0.18993L19.3265 1.72355C19.1416 1.94264 19.1786 2.27128 19.4375 2.45385V2.41735Z" fill="#4F1B19"/>
<path d="M25.8374 13.4816L27.9457 16.9506C28.0937 17.2062 28.3896 17.2792 28.6485 17.1331L29.9801 16.3298C30.2021 16.1838 30.276 15.9281 30.1651 15.6725L28.5006 12.0941C28.3896 11.8385 28.0567 11.7289 27.7978 11.875L26.0593 12.7879C25.8004 12.9339 25.7264 13.2626 25.8744 13.4816H25.8374Z" fill="#4F1B19"/>
<path d="M130.701 145.738C130.516 145.519 130.22 145.446 129.961 145.629L126.891 147.856L110.394 127.737L115.794 122.698C116.016 122.515 116.016 122.186 115.794 121.967C115.609 121.748 115.276 121.748 115.054 121.967L109.691 126.97L20.5846 18.3377L21.8052 17.2423C22.0271 17.0597 22.0271 16.7311 21.8052 16.512C21.6203 16.2929 21.2874 16.2929 21.0654 16.512L14.3334 22.6465C14.1115 22.8291 14.1115 23.1577 14.3334 23.3768C14.4444 23.4863 14.6294 23.5594 14.7773 23.5228C14.8883 23.5228 14.9992 23.4498 15.0732 23.3768L15.924 22.61L102.145 134.054L96.3009 139.494C96.079 139.677 96.079 140.006 96.3009 140.225C96.4119 140.334 96.5598 140.407 96.7448 140.371C96.8558 140.371 96.9667 140.298 97.0407 140.225L102.811 134.857L117.939 154.393L116.016 155.78C115.794 155.963 115.72 156.255 115.905 156.51C116.016 156.656 116.201 156.729 116.386 156.729C116.46 156.729 116.571 156.693 116.645 156.62L118.716 155.123C118.716 155.123 118.79 155.123 118.827 155.123C118.901 155.123 119.012 155.086 119.086 155.013C119.197 154.94 119.271 154.831 119.271 154.685L123.377 151.727C123.377 151.727 123.414 151.727 123.451 151.727L126.78 149.317L127.261 149.901C127.261 149.901 127.557 150.12 127.705 150.084C127.815 150.084 127.889 150.047 127.963 149.974C128.185 149.792 128.222 149.463 128.037 149.244L127.594 148.696L130.627 146.505C130.849 146.323 130.923 146.031 130.738 145.775L130.701 145.738ZM108.951 127.664L106.547 129.891L18.6611 20.0904L19.8078 19.0315L108.988 127.664H108.951ZM16.6637 21.8797L17.8844 20.7842L105.807 130.585L102.885 133.323L16.6637 21.8797ZM103.514 134.127L106.436 131.388L122.267 151.179L118.679 153.772L103.477 134.127H103.514ZM123.118 150.558L107.213 130.694L109.617 128.43L126.04 148.441L123.118 150.558Z" fill="white"/>
<path d="M17.8843 10.4503C17.7363 10.2312 17.4034 10.1582 17.1445 10.3408L8.67404 16.2197C8.45211 16.3658 8.37813 16.6944 8.56307 16.95C8.67404 17.0961 8.85899 17.1691 9.04393 17.1691C9.11791 17.1691 9.22887 17.1326 9.30285 17.0961L17.7733 11.2171C17.9953 11.0711 18.0692 10.7425 17.8843 10.4868V10.4503Z" fill="white"/>
</svg>
