<svg width="127" height="139" viewBox="0 0 127 139" fill="none" xmlns="http://www.w3.org/2000/svg">
<path d="M119.618 43.3119L75.3595 11.9005L22.1687 22.6811C22.1687 22.6811 -1.67611 82.7766 50.1607 126.779C50.4725 126.699 50.7819 126.615 51.0914 126.531C51.3402 126.733 51.5898 126.932 51.8418 127.135C117.063 107.915 119.618 43.3119 119.618 43.3119Z" fill="#FDD219"/>
<path d="M110.392 47.581L73.3678 21.3062L28.8726 30.3228C28.8726 30.3228 8.92559 80.5946 52.2904 117.406C52.5511 117.338 52.8087 117.269 53.0695 117.201C53.2802 117.369 53.4847 117.535 53.6985 117.704C108.261 101.625 110.398 47.5823 110.398 47.5823L110.392 47.581Z" fill="#ED9127"/>
<path d="M119.492 53.8244C120.155 50.48 120.712 47.0547 120.884 43.6389C121.012 43.3381 121.009 43.0029 120.819 42.703C120.695 42.4038 120.45 42.2124 120.161 42.122C110.022 34.9253 99.8788 27.728 89.7391 20.5313C85.3439 17.4119 80.9488 14.2926 76.5537 11.1732C75.6495 10.5304 74.9427 10.6698 73.9266 10.8768C71.6851 11.3311 69.4405 11.7847 67.1983 12.2421C52.8316 15.1534 38.4648 18.0647 24.0981 20.976C23.3264 21.1309 21.3739 21.169 21.0124 22.0959C20.7381 22.7946 20.4966 23.5066 20.2583 24.2193C18.9169 28.2287 17.9322 32.359 17.1632 36.5123C14.5332 50.6801 14.8073 65.3816 18.3017 79.3683C20.5911 88.5306 24.4427 97.2637 29.4691 105.239C32.2393 109.635 35.4402 113.742 38.8831 117.624C40.8736 119.871 42.9924 122.001 45.1711 124.064C46.3133 125.143 47.4896 126.185 48.6778 127.216C49.5483 127.972 49.9492 128.099 50.7919 127.93C51.4938 128.426 51.9069 128.465 53.014 128.134C54.5192 127.683 56.0112 127.187 57.4972 126.673C60.5636 125.614 63.5666 124.379 66.5157 123.032C71.6172 120.702 76.4991 117.91 81.1095 114.716C89.2407 109.082 96.3481 102.023 102.183 94.0383C110.86 82.1702 116.639 68.2209 119.493 53.8212L119.492 53.8244ZM113.361 66.7736C107.6 83.854 97.1231 99.2348 82.8267 110.264C73.6595 117.332 63.1165 122.342 52.0858 125.706C51.5385 125.337 51.1663 125.258 50.5163 125.374C33.9809 111.052 22.4887 92.089 19.0881 70.3116C16.9664 56.7291 17.8935 42.6295 21.4198 29.3561C21.8407 27.7662 22.3112 26.1868 22.833 24.6248C23.0025 24.1151 23.0391 24.0189 23.1175 23.8017C27.4347 22.9262 31.7482 22.0533 36.0655 21.1778C49.0677 18.5427 62.0669 15.907 75.0684 13.275C89.4769 23.4993 103.888 33.7274 118.296 43.9518C117.916 51.0907 115.77 59.6354 113.364 66.7742L113.361 66.7736Z" fill="#FCBF16"/>
<path d="M77.7506 90.3969C66.3172 97.8523 51.0227 94.6143 43.5915 83.1651C36.1604 71.7159 39.4052 56.389 50.8386 48.9336C62.272 41.4782 77.5665 44.7161 84.9977 56.1653C92.4288 67.6145 89.184 82.9414 77.7506 90.3969Z" fill="#FDD219"/>
<path d="M70.9049 79.8497C65.2882 83.5122 57.7749 81.9215 54.1243 76.2972C50.4738 70.6728 52.0678 63.1434 57.6844 59.481C63.3011 55.8185 70.8145 57.4092 74.465 63.0336C78.1155 68.6579 76.5215 76.1873 70.9049 79.8497Z" fill="#E4003D"/>
</svg>
