<svg width="161" height="225" viewBox="0 0 161 225" fill="none" xmlns="http://www.w3.org/2000/svg">
<g clip-path="url(#clip0_3478_24821)">
<path d="M38.9362 44.7029C43.1905 42.1229 44.5381 36.5665 41.9461 32.2924C39.3541 28.0183 33.804 26.645 29.5497 29.225C25.2954 31.805 23.9478 37.3613 26.5398 41.6354C29.1318 45.9095 34.6818 47.2829 38.9362 44.7029Z" fill="#E4003D"/>
<path d="M21.4386 22.1358C23.5957 24.9654 24.4243 25.2974 23.7231 29.0571C23.0234 32.8194 20.0831 35.1773 21.996 41.7699C23.9089 48.3626 27.7003 49.7268 33.4915 50.2798C39.2844 50.8353 45.2644 53.4899 45.2644 53.4899C45.2644 53.4899 44.8232 48.7783 45.29 41.9439C45.7569 35.1096 45.2246 26.0765 41.9272 22.7022C38.6298 19.328 33.599 19.5742 29.6531 21.7005C25.7073 23.8268 24.8942 24.4411 24.093 21.9492C23.2917 19.4572 21.9187 16.9658 19.7154 14.4239C17.5121 11.882 17.6412 11.5094 21.1695 12.4341C24.6977 13.3588 29.6044 12.8623 37.4157 13.3192C45.2269 13.776 49.2445 19.0369 50.0141 25.6823C50.7837 32.3277 46.3622 45.2237 49.9562 55.3329C53.5527 65.4406 58.5404 63.3784 62.604 64.9584C66.669 66.541 66.5923 69.5515 71.4043 78.9185C76.2163 88.2856 88.9467 111.767 107.18 141.696C125.413 171.625 141.745 198.892 144.779 203.724C147.811 208.558 147.543 209.714 147.119 211.737C146.695 213.76 144.272 212.515 140.227 205.543C136.181 198.571 108.807 153.933 101.848 142.544C94.8913 131.157 76.2866 100.615 68.928 89.3503C61.5694 78.0858 56.4994 73.4423 52.203 71.9274C47.9051 70.4099 49.1281 69.4258 48.2483 65.9462C47.3645 62.4656 46.9984 58.3213 40.2894 55.7833C33.5804 53.2453 28.8043 56.8896 19.2501 50.3362C9.69828 43.7812 13.6304 32.8232 14.9792 27.4658C16.3279 22.1084 15.845 18.2773 17.2883 17.9803C18.7315 17.6833 21.4274 22.1287 21.4274 22.1287L21.4386 22.1358Z" fill="#6B3022"/>
<path d="M118.174 170.236C118.174 170.236 120.101 169.753 121.262 168.855C122.423 167.957 122.788 167.438 122.788 167.438C122.788 167.438 123.957 167.553 123.778 169.071C123.778 169.071 123.37 169.966 121.69 170.783C120.01 171.605 119.147 171.755 119.147 171.755C119.147 171.755 117.901 171.354 118.172 170.233L118.174 170.236Z" fill="#FCBF16"/>
<path d="M116.171 167.109C116.171 167.109 118.081 166.826 119.446 165.86C120.808 164.895 121.019 164.414 121.019 164.414C121.019 164.414 122.03 164.49 121.962 166.076C121.962 166.076 121.211 167.293 119.531 168.114C117.851 168.936 117.229 168.763 117.229 168.763C117.229 168.763 115.899 168.229 116.172 167.111L116.171 167.109Z" fill="#FCBF16"/>
<path d="M65.1673 84.6609C65.1673 84.6609 68.0515 83.5973 69.9537 82.2498C71.8534 80.9039 72.5101 80.2079 72.5101 80.2079C72.5101 80.2079 74.153 80.0356 73.5003 81.8407C73.5003 81.8407 72.6812 82.985 70.0597 84.3739C67.4372 85.7669 66.1627 86.1659 66.1627 86.1659C66.1627 86.1659 64.4832 86.0279 65.1657 84.6583L65.1673 84.6609Z" fill="#FCBF16"/>
<path d="M63.1196 81.557C63.1196 81.557 65.9321 80.7274 68.1385 79.2508C70.345 77.7742 70.7705 77.163 70.7705 77.163C70.7705 77.163 72.1998 76.9852 71.6851 78.8417C71.6851 78.8417 70.2917 80.4485 67.6693 81.8415C65.0468 83.2345 64.2004 83.1972 64.2004 83.1972C64.2004 83.1972 62.4346 82.928 63.1186 81.561L63.1196 81.557Z" fill="#FCBF16"/>
</g>
<defs>
<clipPath id="clip0_3478_24821">
<rect width="41.9888" height="237.936" fill="white" transform="translate(0.888916 22.6621) rotate(-31.2344)"/>
</clipPath>
</defs>
</svg>
