<svg width="158" height="152" viewBox="0 0 158 152" fill="none" xmlns="http://www.w3.org/2000/svg">
<path d="M88.2487 115.313C93.2305 117.032 98.3662 120.068 102.369 125.333C113.746 140.315 131.133 140.947 131.133 140.947L124.408 151.998C124.408 151.998 111.123 146.695 103.106 133.639C97.9428 125.234 86.5826 121.171 86.5826 121.171L88.2487 115.308V115.313Z" fill="#10B8D9"/>
<path d="M89.3042 114.836C99.4217 114.753 107.081 123.005 122.874 123.323C138.66 123.642 148.041 114.759 148.041 114.759L149.135 129.401C149.135 129.401 136.532 136.319 119.981 132.486C103.43 128.654 103.755 122.807 89.964 124.037L89.3097 114.836H89.3042Z" fill="#10B8D9"/>
<path d="M60.6948 85.8916L3.49778 0.514648C3.49778 0.514648 -9.20412 17.298 13.8023 51.0183C36.8087 84.7386 48.7627 100.649 48.7627 100.649L60.6948 85.8916Z" fill="#A3A3BD"/>
<path d="M72.3574 90.1901L65.1322 82.46L40.6741 103.63L45.5954 110.778L53.9479 108.593L87.2038 142.341L86.6429 144.954L90.0576 148.539C90.0576 148.539 93.5602 153.458 99.7902 146.552C106.02 139.645 101.566 136.642 101.566 136.642L97.9482 133.891L96.9859 134.243L68.6018 95.0104L72.3574 90.1846V90.1901Z" fill="#FCBF16"/>
<path d="M66.4737 121.309L74.0124 128.956L84.9162 117.57L81.8974 113.397L66.4737 121.309Z" fill="#004E9D"/>
<path d="M66.4299 121.259L70.4934 125.382L82.9974 114.918L78.472 108.659L66.4299 121.259Z" fill="#004E9D"/>
<path d="M60.2166 114.956L68.7175 123.581L80.1328 110.954L74.5461 103.229L60.2166 114.956Z" fill="#004E9D"/>
<path d="M96.6286 87.6543L153.826 2.27734C153.826 2.27734 166.528 19.0607 143.521 52.781C120.515 86.5013 108.561 102.412 108.561 102.412L96.6286 87.6543Z" fill="#A3A3BD"/>
<path d="M84.9659 91.9528L92.1911 84.2227L116.649 105.393L111.728 112.541L103.375 110.356L70.1195 144.103L70.6804 146.717L67.2657 150.302C67.2657 150.302 63.7631 155.221 57.5331 148.314C51.2976 141.408 55.757 138.405 55.757 138.405L59.3751 135.654L60.3374 136.006L88.7215 96.7731L84.9659 91.9473V91.9528Z" fill="#FCBF16"/>
<path d="M90.8492 123.071L83.3105 130.719L72.4067 119.333L75.4254 115.16L90.8492 123.071Z" fill="#10B8D9"/>
<path d="M90.8988 123.022L86.8353 127.145L74.3259 116.681L78.8513 110.422L90.8988 123.022Z" fill="#0398D0"/>
<path d="M97.1124 116.719L88.6115 125.344L77.1908 112.717L82.7829 104.992L97.1124 116.719Z" fill="#10B8D9"/>
</svg>
