<svg width="98" height="79" viewBox="0 0 98 79" fill="none" xmlns="http://www.w3.org/2000/svg">
<g clip-path="url(#clip0_3469_17614)">
<path d="M48.3447 29.5003C48.3447 29.5003 61.3941 28.518 67.8286 38.4745C74.2631 48.4311 84.4091 49.4605 84.4091 49.4605L81.4822 53.4683C81.4822 53.4683 73.086 51.5587 70.3318 45.9871C67.5775 40.4156 65.6942 38.7182 60.0915 35.4727C54.4889 32.2272 48.3447 33.8853 48.3447 33.8853V29.5003Z" fill="#10B8D9"/>
<path d="M50.3222 27.9837C50.3222 27.9837 54.7949 23.5594 61.1509 23.9838C67.4991 24.4081 72.5995 32.848 82.4866 33.791C92.3737 34.7261 97.9921 32.5572 97.9921 32.5572V38.0659C97.9921 38.0659 89.6666 41.6651 79.4656 38.4746C69.2646 35.2919 65.4275 23.9523 57.4472 26.6635C51.5777 28.6516 50.3143 32.0229 50.3143 32.0229V27.9915L50.3222 27.9837Z" fill="#10B8D9"/>
<path d="M72.8899 28.8947C72.8899 28.8947 68.5034 34.4899 65.961 35.2207C63.4186 35.9515 62.171 35.3386 60.994 33.649C59.8169 31.9595 59.5344 28.5883 61.7551 27.0716C63.9758 25.5549 71.3283 24.6748 71.3283 24.6748L72.8899 28.8947Z" fill="#036EB8"/>
<path d="M4.9436 28.2981C4.9436 28.2981 9.33002 33.8932 11.8724 34.624C14.4148 35.3549 15.6625 34.7419 16.8395 33.0524C18.0165 31.3628 18.299 27.9916 16.0784 26.4749C13.8577 24.9583 6.50514 24.0781 6.50514 24.0781L4.9436 28.2981Z" fill="#036EB8"/>
<path d="M72.2621 24.6757L47.1991 33.3042L28.4999 33.3906L5.25741 23.1826L3.79004 26.9232L25.73 44.3059C26.8129 48.07 29.3631 53.3351 29.3631 53.3351L27.8565 57.445L52.6292 56.1405L53.5473 42.632L73.3136 28.8328L72.2778 24.6757H72.2621Z" fill="#1E1F1C"/>
<path d="M70.9596 20.5422L65.9141 0.597656C65.9141 0.597656 70.1043 0.95914 72.0425 8.89607C73.9807 16.833 74.7418 20.7465 74.7418 20.7465L70.9518 20.5422H70.9596Z" fill="#A3A3BD"/>
<path d="M70.0416 22.8529L69.8611 20.7468L76.2799 19.9531L76.68 21.6427L75.2362 22.5935L75.809 32.0628L76.272 32.33L76.3505 33.3202C76.3505 33.3202 76.6173 34.4989 74.7576 34.4989C72.8978 34.4989 73.0469 33.4381 73.0469 33.4381L73.1254 32.5343L73.3059 32.44L71.2735 22.9629L70.0573 22.8764L70.0416 22.8529Z" fill="#FCBF16"/>
<path d="M70.3161 23.7089C69.8374 23.8739 69.5706 24.4004 69.9394 25.1234C70.3083 25.8464 71.5088 28.3846 72.1366 28.3375C72.7722 28.2903 73.0154 27.8817 72.8193 27.0801C72.6231 26.2864 71.6893 23.2374 70.3083 23.701L70.3161 23.7089Z" fill="#0E4E7C"/>
<path d="M76.7506 22.4201C76.1856 22.208 75.3303 22.1058 74.1062 22.3023C72.8743 22.4987 71.7757 23.3474 71.6815 23.6775C71.5874 24.0075 71.8934 24.5576 72.2622 24.6755C71.9248 25.2727 72.2151 25.925 72.8507 26.1214C72.7173 26.7029 72.9841 27.088 73.4235 27.2216C73.3686 27.921 73.863 28.4632 74.2945 28.5654C74.7261 28.6675 76.9546 28.1646 77.5196 27.7874C78.0846 27.4102 77.7943 26.6479 77.2607 26.4357C77.6609 25.7992 77.4019 25.2963 77.0331 25.0762C77.6059 24.5969 77.4255 23.9839 76.9468 23.7168C77.4961 23.2767 77.3078 22.6323 76.7349 22.4201H76.7506Z" fill="#036EB8"/>
<path d="M72.2621 24.6756L75.5343 23.874C75.5343 23.874 74.9536 23.3947 73.8943 23.6854C72.8428 23.9762 72.2543 24.6756 72.2543 24.6756H72.2621Z" fill="#0E4E7C"/>
<path d="M72.8507 26.1217L76.1778 25.3202C76.1778 25.3202 75.7305 25.0687 74.6163 25.2102C73.502 25.3516 72.8507 26.1217 72.8507 26.1217Z" fill="#0E4E7C"/>
<path d="M73.4313 27.2216C73.4313 27.2216 75.4009 26.978 76.7349 26.5693C76.1856 27.3002 75.4244 27.4809 74.5456 27.5673C73.9727 27.6224 73.4235 27.2216 73.4235 27.2216H73.4313Z" fill="#0E4E7C"/>
<path d="M65.4275 27.0246L67.962 32.5568L68.8487 31.936L66.4947 26.6631L65.4275 27.0246Z" fill="#0E4E7C"/>
<path d="M63.45 27.709L66.0944 33.8621L65.2077 34.4829L62.5162 28.0312L63.45 27.709Z" fill="#0E4E7C"/>
<path d="M70.3788 69.1928C70.3788 69.1928 66.2906 64.7529 62.7124 62.1282C59.1342 59.5035 53.4374 56.8238 53.4374 56.8238L52.7233 56.7295L28.9315 56.8238C28.9315 56.8238 23.2268 59.5113 19.6564 62.1282C16.0861 64.745 11.99 69.1928 11.99 69.1928L7.44666 69.0278L13.7556 78.9922C13.7556 78.9922 19.6878 74.9923 23.6191 73.3656C27.5504 71.7389 30.2341 69.7586 40.1369 68.5327C50.0318 67.3068 54.8263 71.7389 58.7576 73.3656C62.6889 74.9923 68.6211 78.9922 68.6211 78.9922L74.93 69.0278L70.3867 69.1928H70.3788Z" fill="#1E1F1C"/>
<path d="M28.3352 25.8856C28.3352 25.8856 18.3068 26.4671 22.6383 18.0116C22.6383 18.0116 18.3774 15.1904 21.5554 10.4283C24.7334 5.66609 26.0282 9.39095 29.9281 7.3242C33.828 5.2496 33.5376 4.66022 36.9275 3.78795C40.3174 2.91567 38.6538 12.0942 38.6538 12.0942L28.3352 25.8935V25.8856Z" fill="#D3D3D3"/>
<path d="M33.2159 9.3828C33.2159 9.3828 28.2096 10.0586 26.8678 15.9367C25.5181 21.8147 27.7309 20.4631 27.7309 24.8009C27.7309 29.1387 26.9619 33.4686 34.8481 35.4018C42.7342 37.335 47.7405 30.7811 47.9289 28.1721C47.9289 28.1721 51.97 28.7536 52.1584 23.9365C52.3467 19.1193 47.7327 19.5987 46.3909 21.3354C46.3909 21.3354 43.6915 7.65397 33.2081 9.39066L33.2159 9.3828Z" fill="#F69582"/>
<path d="M6.87388 19.9445L11.9194 0C11.9194 0 7.7292 0.361484 5.79101 8.29842C3.85282 16.2354 3.09167 20.1488 3.09167 20.1488L6.88173 19.9445H6.87388Z" fill="#A3A3BD"/>
<path d="M7.79192 22.2552L7.9724 20.1492L1.55363 19.3555L1.15344 21.045L2.59727 21.9959L2.02445 31.4652L1.56148 31.7324L1.48301 32.7225C1.48301 32.7225 1.21622 33.9013 3.07593 33.9013C4.93565 33.9013 4.78656 32.8404 4.78656 32.8404L4.70809 31.9367L4.52761 31.8424L6.55996 22.3652L7.77623 22.2788L7.79192 22.2552Z" fill="#FCBF16"/>
<path d="M7.52519 23.119C8.00385 23.2841 8.27065 23.8106 7.90184 24.5335C7.53304 25.2565 6.33246 27.7948 5.70471 27.7476C5.06911 27.7005 4.82585 27.2918 5.02203 26.4903C5.2182 25.6966 6.15198 22.6475 7.53304 23.1112L7.52519 23.119Z" fill="#0E4E7C"/>
<path d="M1.08286 21.8225C1.64784 21.6103 2.50315 21.5081 3.72727 21.7046C4.95923 21.9011 6.0578 22.7498 6.15196 23.0798C6.24613 23.4099 5.9401 23.9599 5.57129 24.0778C5.90871 24.6751 5.61837 25.3273 4.98277 25.5238C5.11617 26.1053 4.84938 26.4903 4.40995 26.6239C4.46488 27.3233 3.97052 27.8655 3.53894 27.9677C3.10736 28.0699 0.878842 27.5669 0.313865 27.1897C-0.251113 26.8125 0.0392229 26.0503 0.572812 25.8381C0.17262 25.2016 0.431568 24.6986 0.800373 24.4786C0.227549 23.9992 0.408027 23.3863 0.886689 23.1191C0.337405 22.679 0.525731 22.0346 1.09856 21.8225H1.08286Z" fill="#036EB8"/>
<path d="M5.57123 24.0779L2.29907 23.2764C2.29907 23.2764 2.87974 22.797 3.93908 23.0878C4.99056 23.3785 5.57908 24.0779 5.57908 24.0779H5.57123Z" fill="#0E4E7C"/>
<path d="M4.98273 25.5241L1.65564 24.7225C1.65564 24.7225 2.10291 24.4711 3.21717 24.6125C4.33143 24.754 4.98273 25.5241 4.98273 25.5241Z" fill="#0E4E7C"/>
<path d="M4.40206 26.6239C4.40206 26.6239 2.43248 26.3803 1.09851 25.9717C1.64779 26.7025 2.40894 26.8832 3.2878 26.9697C3.86062 27.0247 4.4099 26.6239 4.4099 26.6239H4.40206Z" fill="#0E4E7C"/>
<path d="M26.9698 25.9722C26.9698 25.9722 26.3656 27.0959 26.9698 31.2844C27.574 35.4729 29.2611 37.6497 29.2611 37.6497L51.6248 34.3178L51.7974 25.8857L26.9698 25.9722Z" fill="#10B8D9"/>
<path d="M51.7974 9.23355C51.7974 9.23355 49.5218 -0.557953 36.292 3.99203C27.2837 7.08822 35.523 13.2413 40.1369 13.0449C40.1369 13.0449 39.5563 20.6596 47.3561 21.9091C47.3561 21.9091 49.5218 18.1056 51.8838 21.9091C51.8838 21.9091 60.0838 15.4967 51.7974 9.23355Z" fill="#D3D3D3"/>
<path d="M29.418 21.7205C29.1983 21.7283 29.01 21.9012 29.01 22.1291V23.0721C29.01 23.1743 29.0571 23.2843 29.1277 23.3629C29.1983 23.4415 29.316 23.4886 29.418 23.4807C29.6378 23.4729 29.8261 23.3 29.8261 23.0721V22.1291C29.8261 22.027 29.779 21.9169 29.7084 21.8384C29.6378 21.7676 29.5201 21.7126 29.418 21.7205Z" fill="black"/>
<path d="M37.8613 21.7205C37.6416 21.7283 37.4532 21.9012 37.4532 22.1291V23.0721C37.4532 23.1743 37.5003 23.2843 37.571 23.3629C37.6416 23.4415 37.7593 23.4886 37.8613 23.4807C38.081 23.4729 38.2693 23.3 38.2693 23.0721V22.1291C38.2693 22.027 38.2222 21.9169 38.1516 21.8384C38.081 21.7676 37.9633 21.7126 37.8613 21.7205Z" fill="black"/>
<path d="M29.0649 18.3574C29.1669 18.4046 29.2689 18.4282 29.3788 18.3967C29.473 18.3732 29.575 18.2946 29.622 18.2081C29.7162 18.0274 29.6848 17.7445 29.473 17.6502C29.0257 17.4459 28.5627 17.2966 28.0841 17.2258C27.9742 17.2101 27.8722 17.2101 27.7702 17.2651C27.6839 17.3123 27.6054 17.4144 27.5818 17.5087C27.5583 17.6109 27.5662 17.7288 27.6211 17.8231C27.676 17.9095 27.7623 17.996 27.8643 18.0117C28.2488 18.0667 28.6176 18.1688 28.9707 18.3181C29.0021 18.3339 29.0257 18.3417 29.0571 18.3574H29.0649Z" fill="black"/>
<path d="M38.85 17.3435C38.7951 17.2571 38.7088 17.1785 38.6067 17.1549C38.4969 17.1313 38.4027 17.1549 38.2929 17.1942C37.8691 17.3828 37.4454 17.5635 37.0138 17.7521C36.9275 17.7914 36.849 17.9093 36.8255 17.9958C36.802 18.0901 36.8098 18.2236 36.8647 18.3101C36.9197 18.3965 37.006 18.4751 37.108 18.4987C37.2178 18.5223 37.312 18.4987 37.4219 18.4594C37.8456 18.2708 38.2693 18.0901 38.7009 17.9015C38.7872 17.8622 38.8657 17.7443 38.8892 17.6578C38.9128 17.5635 38.9049 17.43 38.85 17.3435Z" fill="black"/>
<path d="M19.3661 61.3105L18.5579 69.6483L14.3127 72.7759L7.43884 69.0274L11.9822 69.1925C11.9822 69.1925 13.7399 64.9961 19.3583 61.3105H19.3661Z" fill="#0E4E7C"/>
<path d="M26.7501 48.8002L27.37 53.5938L26.7501 57.743C26.7501 57.743 28.8374 60.0612 37.0296 60.4777C45.2217 60.8942 53.5081 56.0928 53.5081 56.0928V47.5743C53.5081 47.5743 48.7685 49.1931 45.6376 47.8651C42.2478 46.427 40.2939 42.042 35.9859 42.2149C32.2037 42.3642 30.9639 49.1931 26.7501 48.8081V48.8002Z" fill="#0E4E7C"/>
<path d="M38.0654 61.1455C37.7123 61.1455 37.3513 61.1376 36.9982 61.1219C28.6334 60.6975 26.3656 58.2772 26.2715 58.175C26.0361 57.9078 26.0518 57.4992 26.3186 57.2634C26.5775 57.0277 26.9855 57.0434 27.221 57.3027C27.268 57.3499 29.4024 59.4402 37.061 59.8331C44.9628 60.2339 53.1 55.5817 53.1864 55.5346C53.4924 55.3539 53.8847 55.4639 54.0652 55.7704C54.2457 56.0768 54.1358 56.4697 53.8298 56.6505C53.5002 56.8391 45.9751 61.1455 38.0654 61.1455Z" fill="#036EB8"/>
<path d="M27.1032 49.4603C26.9698 49.4603 26.8364 49.4603 26.6952 49.4445C26.3421 49.4131 26.0831 49.0988 26.1145 48.7452C26.1459 48.3915 26.4598 48.1322 26.8129 48.1636C28.6805 48.3365 29.9203 46.7413 31.2385 45.0517C32.5333 43.3779 33.883 41.6569 35.9702 41.5705C38.8657 41.4605 40.749 43.1657 42.5616 44.8238C43.6524 45.8219 44.6881 46.757 45.8966 47.2756C48.7607 48.4937 53.2648 46.9849 53.304 46.9692C53.6415 46.8513 54.0103 47.032 54.1201 47.3699C54.2378 47.7079 54.0573 48.0693 53.7199 48.1872C53.5159 48.2579 48.7136 49.8689 45.3944 48.4544C43.9741 47.8572 42.8127 46.7963 41.6906 45.7668C39.9957 44.2187 38.3949 42.7571 36.0173 42.8514C34.5264 42.9064 33.42 44.3288 32.2508 45.8376C30.9247 47.5428 29.4338 49.4603 27.1032 49.4603Z" fill="#036EB8"/>
<path d="M14.3128 73.4207C14.2108 73.4207 14.1009 73.3971 14.0068 73.3421L9.40062 70.8274C9.08674 70.6546 8.96904 70.2616 9.14167 69.9552C9.3143 69.6408 9.6988 69.5308 10.0127 69.6958L14.2579 72.0141L17.938 69.3029L18.7227 61.256C18.7541 60.9023 19.0759 60.643 19.429 60.6745C19.7821 60.7059 20.041 61.0281 20.0096 61.3817L19.2014 69.7194C19.1857 69.9002 19.0915 70.0652 18.9425 70.1752L14.6973 73.3028C14.5874 73.3893 14.454 73.4286 14.3128 73.4286V73.4207Z" fill="#036EB8"/>
<path d="M63.0028 61.3105L63.811 69.6483L68.0562 72.7759L74.9301 69.0274L70.3867 69.1925C70.3867 69.1925 68.629 64.9961 63.0107 61.3105H63.0028Z" fill="#0E4E7C"/>
<path d="M68.0562 73.4207C68.1583 73.4207 68.2681 73.3971 68.3623 73.3421L72.9684 70.8274C73.2823 70.6546 73.4 70.2616 73.2273 69.9552C73.0547 69.6408 72.6702 69.5308 72.3563 69.6958L68.1112 72.0141L64.431 69.3029L63.6463 61.256C63.6149 60.9023 63.2932 60.643 62.9401 60.6745C62.5869 60.7059 62.328 61.0281 62.3594 61.3817L63.1676 69.7194C63.1833 69.9002 63.2775 70.0652 63.4266 70.1752L67.6717 73.3028C67.7816 73.3893 67.915 73.4286 68.0562 73.4286V73.4207Z" fill="#036EB8"/>
<path d="M12.4373 26.3336L9.90278 31.7716L9.07886 31.1194L11.4172 25.8936L12.4373 26.3336Z" fill="#0E4E7C"/>
<path d="M14.3127 27.1582L11.8723 33.3349L12.5707 33.885L15.2622 27.5747L14.3127 27.1582Z" fill="#0E4E7C"/>
</g>
<defs>
<clipPath id="clip0_3469_17614">
<rect width="98" height="79" fill="white"/>
</clipPath>
</defs>
</svg>
