<svg width="92" height="99" viewBox="0 0 92 99" fill="none" xmlns="http://www.w3.org/2000/svg">
<g clip-path="url(#clip0_3469_17613)">
<path d="M23.03 67.5226L11.4329 69.6563L11.1047 80.9269C11.1047 80.9269 25.1655 79.86 27.9254 80.9269C30.6852 81.9938 41.2455 89.2625 41.2455 89.2625L49.933 83.3937L45.2061 74.7239L36.6051 70.4553L23.03 67.5215V67.5226Z" fill="#3D3A39"/>
<path d="M33.9052 71.0998C33.9052 71.0998 34.5627 79.6593 36.2048 81.1932C37.8481 82.7271 47.1122 76.1459 47.1122 76.1459L45.0099 72.2566L33.9052 71.0986V71.0998Z" fill="#A0A0B9"/>
<path d="M61.6552 25.0732L56.4982 28.1916L58.4253 33.2682L63.7764 27.5704L61.6552 25.0732Z" fill="#3D3A39"/>
<path d="M58.8389 26.7775C58.8389 26.7775 58.4375 21.5581 66.2912 21.3285C74.146 21.0989 76.1363 26.4005 75.9522 30.5464C75.7682 34.6923 77.998 39.2658 84.1674 39.0441C90.3368 38.8224 93.8661 44.0317 90.9733 47.4821C88.0804 50.9325 85.417 51.036 87.6779 53.7099C87.6779 53.7099 85.0799 54.9602 84.0543 49.3165C83.0275 43.6739 80.7866 46.2296 72.3364 45.874C63.8862 45.5183 62.9925 39.7249 62.6898 34.4661C62.3882 29.2083 63.3362 28.2822 61.4646 28.0278L58.8389 26.7764V26.7775Z" fill="#B81C25"/>
<path d="M15.9336 42.8812L25.0436 56.5859L30.0276 46.1819L20.0739 36.5791L15.9336 42.8812Z" fill="#3D3A39"/>
<path d="M28.2536 48.5977L27.6925 50.8495L30.1086 54.7107H45.1695L45.5188 51.6542L28.2536 48.5977Z" fill="#3D3A39"/>
<path d="M13.0762 68.5225V81.3269L2.49704 82.7269L0 71.6904L4.00834 73.2907C4.00834 73.2907 6.899 70.0563 13.0762 68.5225Z" fill="#A0A0B9"/>
<path d="M50.3476 82.0605L57.1645 89.2629L49.2144 98.9996L48.7055 93.9985C48.7055 93.9985 42.5871 92.1776 39.7518 89.264L50.3465 82.0617L50.3476 82.0605Z" fill="#A0A0B9"/>
<path d="M21.7681 66.8887L16.5112 68.1896C16.5112 68.1896 16.6897 73.3911 18.1356 75.0589C19.5815 76.7255 27.6924 69.5907 27.6924 69.5907L21.7681 66.8898V66.8887Z" fill="#A0A0B9"/>
<path d="M41.2455 73.291C41.2455 73.291 35.942 73.0051 28.747 70.4967C21.5519 67.9893 21.7682 66.8887 21.7682 66.8887V64.6875L30.6198 52.9375H31.234L41.2455 71.6896V73.2898V73.291Z" fill="#D2D2D2"/>
<path d="M27.6925 48.5977C27.6925 48.5977 26.6635 48.8824 25.0435 52.5837C23.4247 56.2851 21.787 64.3877 21.7681 64.6882C21.7493 64.9887 27.6925 63.0879 27.6925 63.0879L30.6197 52.9382L27.6925 48.5977Z" fill="#A0A0B9"/>
<path d="M31.234 52.9385L28.7469 63.1872L41.2454 71.6905L45.5188 53.1984L31.234 52.9385Z" fill="#A0A0B9"/>
<path d="M50.3476 82.0605L51.1282 82.8854L41.8053 90.0968L42.1435 91.1085C42.1435 91.1085 40.6555 90.2803 39.7518 89.264L50.3465 82.0617L50.3476 82.0605Z" fill="#D2D2D2"/>
<path d="M13.0762 81.3269V68.5225C13.0762 68.5225 11.4041 68.9298 10.2565 69.4104L11.6669 69.8898L11.8864 81.4845L13.0773 81.3269H13.0762Z" fill="#D2D2D2"/>
<path d="M29.043 48.2366C26.4395 45.6595 25.619 42.2226 26.7965 38.438C29.3368 30.2701 28.0572 31.3606 32.6677 25.413C37.2781 19.4654 46.1386 18.1014 54.2639 24.0873C63.8961 31.1828 60.226 47.6199 49.9329 51.8997C48.4039 52.5355 29.043 48.2366 29.043 48.2366Z" fill="#A0A0B9"/>
<path d="M48.7055 38.3774L48.2132 46.9055C48.2132 46.9055 30.7107 45.3176 25.3462 44.3644C25.3462 44.3644 23.0943 36.857 30.8759 26.2178C30.8759 26.2178 36.6173 33.7848 48.7055 38.3763V38.3774Z" fill="#D2D2D2"/>
<path d="M48.658 46.9236C51.3677 45.7563 52.6319 42.5805 51.4817 39.8303C50.3315 37.0801 47.2024 35.797 44.4928 36.9644C41.7831 38.1318 40.5188 41.3076 41.669 44.0577C42.8192 46.8079 45.9483 48.091 48.658 46.9236Z" fill="#44547F"/>
<path d="M50.4141 43.4999C49.5659 45.6505 47.1609 46.6971 45.0419 45.8362C42.923 44.9752 41.8918 42.5343 42.7401 40.3837C43.5883 38.2332 45.9933 37.1866 48.1122 38.0475C50.2312 38.9084 51.2624 41.3493 50.4141 43.4999Z" fill="#D2D2D2"/>
<path d="M27.6925 46.582V49.6824L48.7055 53.826L50.3477 51.7193L27.6925 46.582Z" fill="#D2D2D2"/>
<path d="M9.99146 32.4194L15.2439 45.3488L23.0299 37.5736L12.4807 29.5059L9.99146 32.4194Z" fill="#A0A0B9"/>
<path d="M30.0276 29.4238C30.0276 29.4238 28.2535 31.9773 27.2678 35.278C26.2821 38.5787 26.1934 41.9413 26.1934 41.9413L39.9825 43.581C39.9825 43.581 39.4403 42.2305 39.9825 40.1801C40.5247 38.1297 41.2454 37.7459 41.2454 37.7459C41.2454 37.7459 38.3836 36.2695 34.8088 33.7981C31.234 31.3268 30.0287 29.4238 30.0287 29.4238H30.0276Z" fill="#A0A0B9"/>
<path d="M32.9804 31.3809C32.9804 31.3809 30.1529 36.0174 29.8757 42.9756L31.4281 43.1759C31.4281 43.1759 31.601 36.624 34.2123 32.522L32.9804 31.3809Z" fill="#D2D2D2"/>
<path d="M37.0718 34.4775C37.0718 34.4775 34.8808 38.4794 34.8309 43.5807L36.3589 43.8305C36.3589 43.8305 35.6692 40.6795 38.3791 35.0278L37.0718 34.4775Z" fill="#D2D2D2"/>
<path d="M13.9511 25.2004L26.0881 0L16.3605 5.44454L11.2367 23.7487L13.9511 25.2004Z" fill="#A0A0B9"/>
<path d="M27.1758 10.7811L26.0881 0L13.951 25.2004L16.3871 26.5036L27.1758 10.7811Z" fill="#D2D2D2"/>
<path d="M20.5373 31.0325C20.9188 30.3292 21.3501 29.6472 21.767 28.9607L16.7286 26.1158L11.3952 22.8139L6.97328 20.1592C6.38229 20.8918 5.81901 21.6762 5.33668 22.5033L10.1866 26.0055L7.02429 34.5223L6.30245 34.1363L5.12268 36.5243L10.0824 38.6884L10.9561 36.6267L10.1478 36.1946L15.1918 28.4419L20.5351 31.0325H20.5373Z" fill="#FCBF16"/>
<path d="M14.5265 30.1714C14.9024 30.4718 14.97 31.0368 14.4134 31.5724C13.8568 32.1081 11.9873 34.0246 11.4385 33.7759C10.8885 33.5272 10.7976 33.0782 11.2222 32.4221C11.6469 31.766 13.4399 29.3037 14.5265 30.1714Z" fill="#44547F"/>
<path d="M9.18427 26.9406C9.75641 26.9339 10.5503 27.1117 11.5859 27.6789C12.6216 28.246 13.339 29.3714 13.3168 29.7023C13.2946 30.0331 12.8511 30.4315 12.4808 30.418C12.5939 31.0685 12.1248 31.5648 11.5006 31.5378C11.4374 32.1094 11.0792 32.3739 10.639 32.3525C10.4683 33.0052 9.85953 33.335 9.43597 33.2866C9.01351 33.2382 7.1873 32.0734 6.80255 31.5513C6.41779 31.0291 6.91232 30.4338 7.45785 30.409C7.30151 29.7056 7.6907 29.3343 8.08655 29.2499C7.72729 28.6298 8.08211 28.1335 8.59106 28.0469C8.24067 27.4707 8.61323 26.9485 9.18427 26.9417V26.9406Z" fill="#A0A0B9"/>
<path d="M12.4807 30.4173L9.80737 28.646C9.80737 28.646 10.4782 28.3962 11.3275 28.9994C12.1769 29.6026 12.4807 30.4173 12.4807 30.4173Z" fill="#44547F"/>
<path d="M11.5005 31.5369L8.78284 29.7464C8.78284 29.7464 9.25962 29.6587 10.211 30.1437C11.1623 30.6287 11.5005 31.5369 11.5005 31.5369Z" fill="#44547F"/>
<path d="M10.639 32.3498C10.639 32.3498 8.9536 31.5013 7.89136 30.7012C8.15082 31.5362 8.77619 31.9481 9.53018 32.3026C10.0258 32.5355 10.639 32.351 10.639 32.351V32.3498Z" fill="#44547F"/>
<path d="M69.3271 55.7844L51.9088 48.1465L34.4906 55.7844C34.4906 55.7844 30.6852 78.3582 51.6084 89.8032C51.7093 89.7526 51.8091 89.7008 51.9088 89.649C52.0086 89.7008 52.1084 89.7514 52.2093 89.8032C73.1325 78.3582 69.3271 55.7844 69.3271 55.7844Z" fill="#FDD219"/>
<path d="M66.4797 57.9405L51.9089 51.5518L37.338 57.9405C37.338 57.9405 34.1547 76.8242 51.6583 86.3989C51.7426 86.3561 51.8257 86.3133 51.91 86.2706C51.9943 86.3133 52.0763 86.3561 52.1617 86.3989C69.6653 76.8242 66.482 57.9405 66.482 57.9405H66.4797Z" fill="#ED9127"/>
<path d="M70.0456 59.4361C70.0301 58.2286 69.9724 57.0008 69.7839 55.8046C69.8061 55.6909 69.7806 55.575 69.6941 55.4849C69.6298 55.3904 69.5322 55.342 69.4269 55.3319C65.4363 53.5819 61.4446 51.832 57.454 50.082C55.7243 49.3235 53.9945 48.565 52.2648 47.8065C51.9089 47.6501 51.6771 47.7503 51.3445 47.8966C50.6104 48.2184 49.8753 48.5403 49.1413 48.8633C44.4366 50.9261 39.7319 52.9889 35.0273 55.0517C34.7745 55.162 34.1092 55.3184 34.0526 55.6661C34.0094 55.9283 33.9783 56.1928 33.9484 56.4573C33.7799 57.945 33.7422 59.4485 33.7799 60.9441C33.9063 66.0466 35.065 71.1209 37.2737 75.7112C38.7207 78.7182 40.6711 81.4619 42.9685 83.8567C44.2348 85.1767 45.6275 86.3651 47.0867 87.4579C47.9305 88.0903 48.8097 88.6733 49.7045 89.2281C50.1736 89.5184 50.6515 89.793 51.1327 90.0631C51.4853 90.2612 51.6317 90.2758 51.9078 90.1554C52.1838 90.2758 52.328 90.2589 52.6828 90.0631C53.1651 89.7964 53.6397 89.515 54.111 89.2281C55.0834 88.6361 56.0214 87.9879 56.9329 87.3048C58.5096 86.1232 59.9776 84.7975 61.3237 83.3525C63.6977 80.8035 65.6182 77.8359 67.0363 74.641C69.1453 69.8919 70.1121 64.6342 70.0456 59.435V59.4361ZM68.8858 64.3731C68.1518 70.7146 65.6814 76.813 61.5887 81.6836C58.9642 84.8054 55.7198 87.3149 52.1894 89.29C51.9754 89.2022 51.8423 89.2022 51.6283 89.29C44.9333 85.5402 39.6277 79.8121 36.8867 72.5152C35.177 67.9642 34.4729 63.0103 34.7179 58.1521C34.7467 57.5703 34.7933 56.9884 34.8587 56.4089C34.8798 56.2198 34.8853 56.1838 34.8964 56.1028C36.3102 55.4827 37.7228 54.8637 39.1365 54.2437C43.3943 52.3767 47.651 50.5097 51.9089 48.6438C57.5793 51.1298 63.2509 53.6168 68.9213 56.1028C69.3083 58.6045 69.193 61.7229 68.8869 64.3731H68.8858Z" fill="#FCBF16"/>
<path d="M58.4131 75.1723C55.0412 78.5946 49.5737 78.5946 46.2018 75.1723C42.8299 71.7501 42.8299 66.2009 46.2018 62.7786C49.5737 59.3564 55.0412 59.3564 58.4131 62.7786C61.785 66.2009 61.785 71.7501 58.4131 75.1723Z" fill="#FDD219"/>
<path d="M56.9107 68.9658H46.9248V72.1326H56.9107V68.9658Z" fill="#00B6D9"/>
<path d="M56.9107 65.7988H46.9248V68.9656H56.9107V65.7988Z" fill="#E5003C"/>
</g>
<defs>
<clipPath id="clip0_3469_17613">
<rect width="92" height="99" fill="white"/>
</clipPath>
</defs>
</svg>
