<svg width="85" height="101" viewBox="0 0 85 101" fill="none" xmlns="http://www.w3.org/2000/svg">
<g clip-path="url(#clip0_3469_17615)">
<path d="M84.9366 49.8435C84.5721 45.7095 82.2427 42.3064 72.1882 40.7267C62.1416 39.147 53.1092 28.4583 53.1092 28.4583C53.1092 28.4583 51.0412 29.2521 44.9641 26.9336V82.9941L54.6779 87.0652C67.8621 87.0652 80.151 78.1763 82.726 71.7317C85.3011 65.287 80.769 60.6658 80.769 60.6658C84.1998 57.2627 85.3011 53.9775 84.9366 49.8435Z" fill="#FFD028"/>
<path d="M58.1246 41.4105C52.5308 39.2728 36.209 23.5777 34.6244 24.1593C31.3125 25.3775 30.0923 27.5624 30.0923 27.5624C23.7221 29.7473 22.2483 35.5868 22.6207 42.3536C22.9852 49.1283 27.2796 54.4177 22.6207 56.6104C17.9619 58.8032 12.9386 66.2145 18.2075 74.4746C23.4764 82.7426 34.0143 83.8351 34.0143 83.8351L46.9845 83.67L58.1246 41.4105Z" fill="#F79620"/>
<path d="M35.3771 88.0713L43.8153 89.1088L43.4587 99.4752L35.8842 101L37.4213 97.2431C37.4213 97.2431 35.6385 94.178 35.3771 88.0635V88.0713Z" fill="#B28247"/>
<path d="M37.4213 97.2427L37.2073 96.8262L43.53 97.4235L43.5063 97.9972L37.4213 97.2427Z" fill="#C9A063"/>
<path d="M37.4213 97.2432L37.2073 97.7619L41.3749 99.8996L42.3336 99.7031L37.4213 97.2432Z" fill="#C9A063"/>
<path d="M47.0162 88.0636L54.0283 83.293L60.6917 91.2937L56.0408 97.4161L54.6859 93.5887C54.6859 93.5887 51.3027 92.4648 47.0242 88.0636H47.0162Z" fill="#B28247"/>
<path d="M54.6859 93.5886L54.2422 93.4156L59.3685 89.7061L59.7409 90.1462L54.6859 93.5886Z" fill="#C9A063"/>
<path d="M54.6859 93.5884L54.8681 94.1149L59.4081 92.9753L60.0024 92.1973L54.6859 93.5884Z" fill="#C9A063"/>
<path d="M9.71381 56.0993L36.1693 65.7584L34.244 54.7868L10.411 51.5645L9.71381 56.0993Z" fill="#FFB69A"/>
<path d="M57.7521 58.4814C57.7521 58.4814 61.9435 63.2442 65.3346 65.4605C68.7258 67.6768 70.4768 69.1151 72.2912 69.0208C74.1056 68.9265 74.4938 68.9265 73.9471 69.4609C73.4004 69.9953 72.307 69.7596 72.3942 69.9718C72.4814 70.184 75.5318 71.3471 76.1736 71.5279C76.8153 71.7087 76.7361 72.3846 75.9517 72.2745C75.1673 72.1645 73.2895 71.5436 73.3925 71.8423C73.4955 72.1409 75.3575 72.9504 75.8963 73.1076C76.435 73.2648 76.5222 74.0193 75.4763 73.87C74.4305 73.7206 72.7032 72.6046 73.1152 73.1862C73.5272 73.7678 74.5335 74.4516 74.9851 74.6166C75.4367 74.7817 75.5556 75.3161 74.272 75.0646C72.9884 74.8131 72.3704 73.7442 72.0297 73.9564C71.689 74.1686 72.3784 75.0174 72.9647 75.2689C73.551 75.5204 73.551 76.3221 71.4355 75.1746C69.3279 74.0193 69.9222 73.8464 68.1949 73.2334C66.4677 72.6203 63.0924 71.4807 58.9882 68.7929C54.8839 66.105 50.9144 60.9571 50.9144 60.9571L57.7284 58.4814H57.7521Z" fill="#FFB69A"/>
<path d="M36.0822 52.7123C36.0822 52.7123 31.1065 54.2291 27.4142 53.734C23.722 53.2388 14.5391 51.9971 14.5391 51.9971L15.5849 66.3796L29.506 63.5817L28.6423 69.3347L16.71 79.8112C16.71 79.8112 27.7391 90.8849 43.8945 89.8789C60.0499 88.873 65.6278 80.9665 65.6278 80.9665L52.1346 69.7355L60.7154 75.3314C60.7154 75.3314 67.5611 69.5862 68.8684 63.5738C68.8684 63.5738 51.3661 57.42 48.3236 53.954C45.281 50.4881 36.0901 52.7123 36.0901 52.7123H36.0822Z" fill="#F9F8DC"/>
<path d="M36.0822 52.7125L38.0472 60.3203L46.5963 52.7125C46.5963 52.7125 41.6839 50.4568 36.0822 52.7125Z" fill="#E4003D"/>
<path d="M14.5311 51.9893V66.6076L19.911 66.1282L17.2171 52.2879L14.5311 51.9893Z" fill="#E4003D"/>
<path d="M68.8208 63.5742L71.5385 64.871C71.5385 64.871 69.114 72.0466 62.9973 77.0529L60.0895 73.0604L68.8208 63.5742Z" fill="#E4003D"/>
<path d="M38.0472 50.7792L37.445 53.192C37.445 53.192 37.8332 54.7717 40.4875 54.3237C43.1418 53.8758 43.0071 53.082 43.0071 53.082L42.2306 50.1426L38.0472 50.7792Z" fill="#F69582"/>
<path d="M35.694 25.8096C35.694 25.8096 30.9084 26.7763 29.8308 30.7531C28.7533 34.7299 29.4426 37.0562 29.3396 38.801C29.2366 40.5458 27.4856 49.1753 35.694 51.1166C43.9024 53.0578 49.8686 47.8235 49.8686 47.8235L49.2823 28.5289L35.694 25.8174V25.8096Z" fill="#FFB69A"/>
<path d="M40.4796 37.9209C40.0201 37.9288 39.6318 38.0938 39.6318 38.3217V39.2491C39.6318 39.3513 39.7269 39.4613 39.8775 39.5321C40.028 39.6028 40.2657 39.6499 40.4796 39.6499C40.9392 39.6421 41.3274 39.477 41.3274 39.2491V38.3217C41.3274 38.2196 41.2323 38.1095 41.0818 38.0388C40.9312 37.9681 40.6935 37.9209 40.4796 37.9209Z" fill="black"/>
<path d="M32.0335 37.9209C31.5739 37.9288 31.1857 38.0938 31.1857 38.3217V39.2491C31.1857 39.3513 31.2807 39.4613 31.4313 39.5321C31.5818 39.6028 31.8195 39.6499 32.0335 39.6499C32.493 39.6421 32.8812 39.477 32.8812 39.2491V38.3217C32.8812 38.2196 32.7862 38.1095 32.6356 38.0388C32.4851 37.9681 32.2474 37.9209 32.0335 37.9209Z" fill="black"/>
<path d="M30.1319 34.9975C30.8688 34.7932 31.6135 34.6282 32.3742 34.5103C32.5168 34.4867 32.6039 34.3059 32.5643 34.1802C32.5247 34.023 32.3742 33.968 32.2316 33.9916C31.4789 34.1094 30.7261 34.2745 29.9893 34.4788C29.6486 34.5731 29.7912 35.0997 30.1319 34.9975Z" fill="black"/>
<path d="M39.7745 34.3843C40.7015 34.4628 41.6126 34.6122 42.5159 34.8165C42.8566 34.8951 43.0071 34.3764 42.6585 34.2978C41.7077 34.0777 40.7411 33.9284 39.7745 33.842C39.6239 33.8262 39.5051 33.9756 39.5051 34.1092C39.5051 34.2664 39.6318 34.3685 39.7745 34.3764V34.3843Z" fill="black"/>
<path d="M35.0443 43.037C36.0585 43.3278 37.1281 43.3435 38.1581 43.0998C38.4988 43.0212 38.3562 42.4947 38.0155 42.5811C37.0885 42.8012 36.1139 42.7776 35.1948 42.5182C34.8541 42.4239 34.7115 42.9426 35.0522 43.037H35.0443Z" fill="black"/>
<path d="M34.6165 24.1671C34.6165 24.1671 37.35 30.9576 46.1526 32.891C46.1526 32.891 40.8758 44.0748 46.1526 50.0714C46.1526 50.0714 48.9891 51.8005 48.4979 55.7773C48.0066 59.7541 44.1005 70.8986 56.4132 73.6179C68.7258 76.3372 71.7604 61.2081 68.8288 55.4865C65.8972 49.7649 56.223 35.2252 54.8523 31.7357C53.4816 28.2461 47.9116 18.4534 34.6165 24.175V24.1671Z" fill="#FFD028"/>
<path d="M44.56 74.624L43.3795 89.9025L50.6609 89.0223L44.56 74.624Z" fill="#E4003D"/>
<path d="M52.1267 74.624L58.909 86.1929L60.8739 84.7783L52.1267 74.624Z" fill="#E4003D"/>
<path d="M34.4896 74.624L30.639 88.0556L26.2099 86.1929L34.4896 74.624Z" fill="#E4003D"/>
<path d="M26.9943 73.3584L20.6558 82.9861L18.6274 81.6736L26.9943 73.3584Z" fill="#E4003D"/>
<path d="M29.0622 71.8501C30.6376 71.8501 31.9146 70.5834 31.9146 69.0208C31.9146 67.4581 30.6376 66.1914 29.0622 66.1914C27.4869 66.1914 26.2099 67.4581 26.2099 69.0208C26.2099 70.5834 27.4869 71.8501 29.0622 71.8501Z" fill="#C9A063"/>
<path d="M34.4897 73.7915C36.065 73.7915 37.342 72.5248 37.342 70.9622C37.342 69.3996 36.065 68.1328 34.4897 68.1328C32.9144 68.1328 31.6373 69.3996 31.6373 70.9622C31.6373 72.5248 32.9144 73.7915 34.4897 73.7915Z" fill="#C9A063"/>
<path d="M40.2261 74.6001C41.8014 74.6001 43.0784 73.3334 43.0784 71.7708C43.0784 70.2081 41.8014 68.9414 40.2261 68.9414C38.6508 68.9414 37.3737 70.2081 37.3737 71.7708C37.3737 73.3334 38.6508 74.6001 40.2261 74.6001Z" fill="#C9A063"/>
<path d="M45.8594 73.7915C47.4347 73.7915 48.7118 72.5248 48.7118 70.9622C48.7118 69.3996 47.4347 68.1328 45.8594 68.1328C44.2841 68.1328 43.0071 69.3996 43.0071 70.9622C43.0071 72.5248 44.2841 73.7915 45.8594 73.7915Z" fill="#C9A063"/>
<path d="M7.82016 14.1068C9.6624 14.1068 11.1558 12.6254 11.1558 10.798C11.1558 8.97064 9.6624 7.48926 7.82016 7.48926C5.97792 7.48926 4.4845 8.97064 4.4845 10.798C4.4845 12.6254 5.97792 14.1068 7.82016 14.1068Z" fill="#E4003D"/>
<path d="M6.61585 3.73269C6.75847 5.02948 6.95655 5.28884 6.00576 6.33413C5.05498 7.37941 3.67634 7.56018 3.01872 9.98085C2.36109 12.4094 3.29603 13.549 5.02329 14.8222C6.75054 16.0954 8.1371 18.0602 8.1371 18.0602C8.1371 18.0602 8.90565 16.5041 10.3635 14.4528C11.8214 12.4015 13.3902 9.47785 12.994 7.79596C12.5979 6.11406 10.9578 5.23382 9.29389 5.15523C7.63002 5.07664 7.25763 5.10807 7.4874 4.18067C7.71717 3.25328 7.75679 2.20799 7.54286 0.997653C7.32894 -0.212681 7.44778 -0.306992 8.38272 0.651844C9.31766 1.61068 10.9736 2.38875 13.3585 4.00777C15.7434 5.63465 16.0048 8.0396 14.9748 10.2638C13.9448 12.488 10.0624 15.6867 9.26219 19.5299C8.46195 23.3731 10.4348 23.6718 11.4173 24.945C12.3998 26.2182 11.7976 27.1377 11.5203 30.9809C11.243 34.8241 10.7676 44.5854 10.7914 57.4118C10.8151 70.2382 10.7518 81.8621 10.7914 83.9527C10.8231 86.0433 10.5141 86.3498 9.99113 86.9078C9.4682 87.4658 8.93734 86.6091 9.00073 83.6619C9.06411 80.7146 8.96111 61.5536 8.94527 56.673C8.92942 51.7924 8.90565 38.7066 8.73926 33.7867C8.57288 28.8668 7.85979 26.454 6.79016 25.165C5.72053 23.8761 6.29892 23.7975 6.68716 22.54C7.07539 21.2825 7.75679 19.915 6.11669 17.848C4.47659 15.781 2.26602 16.0168 0.499145 12.15C-1.26773 8.28323 2.08378 5.59535 3.54165 4.18067C4.99952 2.766 5.58583 1.46921 6.09292 1.64998C6.6 1.83074 6.60793 3.73269 6.60793 3.73269H6.61585Z" fill="#6B3022"/>
<path d="M8.80268 68.4229C8.80268 68.4229 9.50784 68.6351 10.0466 68.58C10.5854 68.525 10.7993 68.4229 10.7993 68.4229C10.7993 68.4229 11.1479 68.6822 10.7993 69.1223C10.7993 69.1223 10.4982 69.3267 9.80892 69.2638C9.1196 69.2009 8.81852 69.083 8.81852 69.083C8.81852 69.083 8.5016 68.7215 8.80268 68.4229Z" fill="#FCBF16"/>
<path d="M8.77099 67.0635C8.77099 67.0635 9.42861 67.3386 10.0466 67.2914C10.6646 67.2443 10.8231 67.1343 10.8231 67.1343C10.8231 67.1343 11.1321 67.3465 10.7993 67.8337C10.7993 67.8337 10.3239 68.0695 9.63462 68.0066C8.9453 67.9438 8.77891 67.7709 8.77891 67.7709C8.77891 67.7709 8.46198 67.3543 8.76307 67.0557L8.77099 67.0635Z" fill="#FCBF16"/>
<path d="M8.45406 31.5947C8.45406 31.5947 9.57123 31.8069 10.4349 31.7519C11.2985 31.6969 11.6392 31.5947 11.6392 31.5947C11.6392 31.5947 12.1938 31.8541 11.6392 32.2942C11.6392 32.2942 11.1638 32.4985 10.0625 32.4357C8.96115 32.3728 8.48576 32.2549 8.48576 32.2549C8.48576 32.2549 7.97867 31.8934 8.46199 31.5947H8.45406Z" fill="#FCBF16"/>
<path d="M8.39856 30.2344C8.39856 30.2344 9.45234 30.5095 10.4348 30.4623C11.4173 30.4152 11.6708 30.3052 11.6708 30.3052C11.6708 30.3052 12.1542 30.5174 11.6391 31.0046C11.6391 31.0046 10.8864 31.2404 9.79304 31.1775C8.69964 31.1147 8.43025 30.9418 8.43025 30.9418C8.43025 30.9418 7.92317 30.5252 8.39856 30.2266V30.2344Z" fill="#FCBF16"/>
<path d="M12.7801 51.1405C13.2476 51.1562 13.6279 51.5649 13.4853 52.2958C13.3427 53.0346 12.9386 55.5967 12.3602 55.7146C11.7818 55.8325 11.449 55.5338 11.4173 54.7793C11.3856 54.0248 11.4173 51.0776 12.7801 51.1326V51.1405Z" fill="#F69582"/>
<path d="M6.67928 51.6671C7.1309 51.337 7.86775 51.0226 9.01662 50.8733C10.1655 50.724 11.3777 51.1955 11.5441 51.4628C11.7105 51.73 11.5837 52.2958 11.2826 52.5002C11.7422 52.9403 11.6471 53.6005 11.1321 53.9306C11.4094 54.41 11.2668 54.8265 10.9023 55.0545C11.1321 55.6596 10.839 56.2648 10.4745 56.4691C10.11 56.6735 7.9866 56.8071 7.38444 56.6185C6.78228 56.4298 6.83774 55.6832 7.25767 55.3531C6.73474 54.8894 6.83774 54.3786 7.0992 54.0878C6.45743 53.8048 6.46535 53.2154 6.82189 52.8617C6.21181 52.6102 6.21973 51.9893 6.67135 51.6592L6.67928 51.6671Z" fill="#FFB69A"/>
<path d="M11.2827 52.5001L8.14508 52.6416C8.14508 52.6416 8.54124 52.06 9.56333 52.0521C10.5854 52.0364 11.2906 52.5001 11.2906 52.5001H11.2827Z" fill="#F69582"/>
<path d="M11.14 53.931L7.9549 54.0882C7.9549 54.0882 8.28767 53.7502 9.31768 53.5852C10.3556 53.4201 11.14 53.9388 11.14 53.9388V53.931Z" fill="#F69582"/>
<path d="M10.9102 55.0625C10.9102 55.0625 9.07998 55.3612 7.78058 55.3454C8.46197 55.8484 9.19091 55.817 9.99907 55.6598C10.5299 55.5576 10.9102 55.0625 10.9102 55.0625Z" fill="#F69582"/>
</g>
<defs>
<clipPath id="clip0_3469_17615">
<rect width="85" height="101" fill="white"/>
</clipPath>
</defs>
</svg>
