<svg width="48" height="87" viewBox="0 0 48 87" fill="none" xmlns="http://www.w3.org/2000/svg">
<g clip-path="url(#clip0_3469_17616)">
<path d="M15.4286 87.0005L5.61322 85.2452L9.26491 81.4893L15.4286 87.0005Z" fill="#8FC31F"/>
<path d="M9.26489 81.4889C9.26489 81.4889 10.0247 74.5979 12.6375 68.4121L21.7396 71.8461C21.7396 71.8461 16.1806 80.0479 15.4286 87.0002L9.27265 81.4889H9.26489Z" fill="#F69582"/>
<path d="M9.63702 79.0131C10.0867 76.4529 10.9938 72.2907 12.6375 68.4121L21.7395 71.8461C21.7395 71.8461 17.9483 77.4417 16.2039 83.2979L9.63702 79.0131Z" fill="#005B2A"/>
<path d="M54 75.0508L50.4026 84.2414L47.3634 79.9872L54 75.0508Z" fill="#8FC31F"/>
<path d="M47.3634 79.9867C40.1453 79.0976 33.9971 73.18 33.9971 73.18L38.5637 65.9824C40.1065 68.4583 54 75.0504 54 75.0504L47.3634 79.9867Z" fill="#F69582"/>
<path d="M44.0451 79.2355C38.3543 77.3806 33.9971 73.18 33.9971 73.18L38.5637 65.9824C39.5793 67.6151 45.9678 71.0338 50.201 73.18L44.0451 79.2355Z" fill="#005B2A"/>
<path d="M13.2267 61.9735C13.2267 61.9735 9.73784 66.6799 7.70654 69.976C5.67525 73.2796 10.2418 76.0315 10.2418 76.0315L18.1499 78.2774C18.1499 78.2774 23.0731 80.163 23.8096 76.8593C24.5462 73.5556 26.7868 69.4241 26.7868 69.4241C26.7868 69.4241 29.826 76.3917 31.834 78.2774C33.8421 80.163 37.5325 81.3818 40.0368 78.1854C42.541 74.9967 43.4404 73.1187 44.9522 70.3975C46.464 67.6764 42.0991 65.3768 39.0599 60.5938L13.2345 61.9658L13.2267 61.9735Z" fill="#8FC31F"/>
<path d="M22.321 39.0537C22.321 39.0537 19.0105 39.115 14.3586 42.3344C11.3117 44.4423 3.861 46.6116 3.861 46.6116C3.861 46.6116 -4.79141 52.6288 4.52001 57.1896C13.8314 61.7504 15.7619 49.8463 15.7619 49.8463L22.3288 39.0537H22.321Z" fill="#8FC31F"/>
<path d="M39.1995 26.0771C39.1995 26.0771 39.8275 28.2694 40.2616 29.3579C41.0059 31.2128 38.742 35.1681 36.4084 34.0106C36.4084 34.0106 35.5555 38.9623 29.3066 36.9004C23.0576 34.8385 28.3297 28.8443 28.3297 28.8443L39.1995 26.0771Z" fill="#1E1F1C"/>
<path d="M15.1107 30.6225C15.1107 30.6225 5.17129 31.1897 9.45873 22.9113C9.45873 22.9113 5.23332 20.1518 8.38106 15.4837C11.5288 10.8156 12.8158 14.4719 16.6846 12.4406C20.5533 10.4094 20.2665 9.83448 23.6236 8.98364C26.9806 8.1328 25.337 17.1087 25.337 17.1087L15.1107 30.6148V30.6225Z" fill="#1E1F1C"/>
<path d="M19.9563 14.4795C19.9563 14.4795 14.9944 15.1387 13.6609 20.8876C12.3273 26.6365 14.5215 25.3181 14.5215 29.5646C14.5215 33.8112 13.7617 38.05 21.5767 39.9357C29.3918 41.8213 34.3538 35.4132 34.5476 32.8607C34.5476 32.8607 38.5559 33.4279 38.742 28.7138C38.9358 23.9997 34.3615 24.4673 33.0202 26.169C33.0202 26.169 30.3454 12.7779 19.9486 14.4795H19.9563Z" fill="#F69582"/>
<path d="M38.3776 14.3261C38.3776 14.3261 36.1214 4.74464 23.011 9.19812C14.0795 12.2259 22.2512 18.2507 26.8255 18.0591C26.8255 18.0591 26.2518 25.5097 33.9816 26.7361C33.9816 26.7361 36.1292 23.0108 38.4706 26.7361C38.4706 26.7361 46.6036 20.4583 38.3853 14.3261H38.3776Z" fill="#1E1F1C"/>
<path d="M16.1884 26.5525C15.9713 26.5602 15.7852 26.7288 15.7852 26.9511V27.8709C15.7852 27.9705 15.8317 28.0779 15.9015 28.1545C15.9713 28.2312 16.0876 28.2772 16.1884 28.2695C16.4055 28.2618 16.5915 28.0932 16.5915 27.8709V26.9511C16.5915 26.8514 16.545 26.7441 16.4752 26.6675C16.4055 26.5985 16.2892 26.5448 16.1884 26.5525Z" fill="black"/>
<path d="M24.5539 26.5525C24.3368 26.5602 24.1508 26.7288 24.1508 26.9511V27.8709C24.1508 27.9705 24.1973 28.0779 24.2671 28.1545C24.3368 28.2312 24.4531 28.2772 24.5539 28.2695C24.771 28.2618 24.9571 28.0932 24.9571 27.8709V26.9511C24.9571 26.8514 24.9106 26.7441 24.8408 26.6675C24.771 26.5985 24.6547 26.5448 24.5539 26.5525Z" fill="black"/>
<path d="M16.0566 22.9495C16.1651 22.9342 16.2659 22.9035 16.3434 22.8192C16.4055 22.7502 16.452 22.6353 16.4442 22.5356C16.4287 22.3363 16.2504 22.1217 16.0256 22.1524C15.5449 22.2137 15.0797 22.3363 14.6378 22.5279C14.537 22.5739 14.4517 22.6199 14.3974 22.7272C14.3509 22.8116 14.3354 22.9342 14.3664 23.0262C14.4052 23.1258 14.4672 23.2178 14.568 23.2638C14.6533 23.3021 14.7773 23.3328 14.8704 23.2945C15.2193 23.1412 15.5836 23.0339 15.9635 22.9649C15.9946 22.9649 16.0256 22.9572 16.0566 22.9495Z" fill="black"/>
<path d="M25.6316 22.9493C25.6393 22.8497 25.6161 22.7424 25.554 22.6581C25.4765 22.5738 25.3912 22.5278 25.2827 22.5048C24.833 22.3975 24.3911 22.2901 23.9414 22.1828C23.8484 22.1598 23.7166 22.2058 23.6468 22.2595C23.5693 22.3208 23.4995 22.4281 23.4917 22.5278C23.484 22.6274 23.5072 22.7347 23.5693 22.819C23.6468 22.9034 23.7321 22.9493 23.8406 22.9723C24.2903 23.0797 24.7322 23.187 25.1819 23.2943C25.2749 23.3173 25.4067 23.2713 25.4765 23.2176C25.554 23.1563 25.6238 23.049 25.6316 22.9493Z" fill="black"/>
<path d="M20.0262 32.9908C21.2279 33.2284 22.4994 33.0061 23.5305 32.3393C23.8252 32.1476 23.5538 31.6877 23.2592 31.8717C22.3521 32.4542 21.2356 32.6765 20.1735 32.4696C20.0262 32.4389 19.8789 32.5079 19.8401 32.6612C19.8013 32.7915 19.8866 32.9602 20.0339 32.9908H20.0262Z" fill="#1E1F1C"/>
<path d="M9.28042 14.3264C9.28042 14.3264 -1.10092 4.97484 6.86147 4.69123C11.397 4.53026 23.0421 -3.29591 34.6096 1.63281C46.1772 6.56153 44.3165 13.0463 47.1851 16.3193C53.8605 23.9232 39.1994 26.0848 39.1994 26.0848C39.1994 26.0848 36.9821 13.3836 24.9571 12.3411C20.4681 11.9502 18.5841 12.6937 16.1884 13.0693C14.6998 13.3069 12.2964 12.8163 11.4125 13.0156C9.90066 13.3682 9.28042 14.334 9.28042 14.334V14.3264Z" fill="#8FC31F"/>
<path d="M9.28042 14.3264C9.28042 14.3264 -1.10092 4.97484 6.86147 4.69123C11.397 4.53026 23.0421 -3.29591 34.6096 1.63281C46.1772 6.56153 44.3165 13.0463 47.1851 16.3193C53.8605 23.9232 39.1994 26.0848 39.1994 26.0848C39.1994 26.0848 36.9821 13.3836 24.9571 12.3411C20.4681 11.9502 18.5841 12.6937 16.1884 13.0693C14.6998 13.3069 12.2964 12.8163 11.4125 13.0156C9.90066 13.3682 9.28042 14.334 9.28042 14.334V14.3264Z" fill="#8FC31F"/>
<path d="M41.4788 25.5942C41.2462 24.3985 40.7113 22.6508 39.5406 20.2823C36.9976 15.1313 31.6092 11.0534 24.1507 10.3788C18.7159 9.88826 15.6224 11.9502 14.3509 13.0923C15.0021 13.1306 15.6534 13.1383 16.1884 13.054C18.5918 12.6784 20.468 11.9349 24.9571 12.3258C36.982 13.3683 39.1994 26.0695 39.1994 26.0695C39.1994 26.0695 40.1608 25.9315 41.4788 25.5942Z" fill="#FFD028"/>
<path d="M22.321 39.0538C22.321 39.0538 21.065 39.0768 19.0105 39.851C17.7312 40.3339 15.7619 49.8464 15.7619 49.8464L14.9013 55.5647L9.64478 71.8992C9.64478 71.8992 15.1417 76.0078 23.8096 76.8739C32.4775 77.7401 37.9744 76.0384 37.9744 76.0384L37.2224 57.1974C37.2224 57.1974 37.548 43.7373 34.5166 40.2879C31.4851 36.8386 22.321 39.0538 22.321 39.0538Z" fill="#FFD028"/>
<path d="M14.9014 55.565L15.1495 53.9093C15.1495 53.9093 18.0879 52.0237 24.9648 52.4452C31.8418 52.8668 37.2302 55.0591 37.2302 55.0591V56.5461C37.2302 56.5461 30.9192 54.8751 24.9648 54.6681C19.0105 54.4612 14.9014 55.565 14.9014 55.565Z" fill="#6B3022"/>
<path d="M1.68943 35.3576L0.559631 36.2188L0.692174 36.3887L1.82197 35.5276L1.68943 35.3576Z" fill="#4F1B19"/>
<path d="M2.71594 37.0175L2.06665 37.8193L2.23612 37.9535L2.88541 37.1516L2.71594 37.0175Z" fill="#4F1B19"/>
<path d="M5.85201 34.8701L4.94647 35.4756L5.06809 35.6534L5.97363 35.0479L5.85201 34.8701Z" fill="#4F1B19"/>
<path d="M4.48889 32.3306L3.66412 33.6738L3.84969 33.7852L4.67445 32.442L4.48889 32.3306Z" fill="#4F1B19"/>
<path d="M30.5005 55.3123C33.5319 59.2062 32.8031 64.7942 28.8646 67.7912C24.926 70.7883 19.2741 70.0678 16.2426 66.1739C13.2112 62.28 14.2346 57.0676 18.1731 54.0705C22.1117 51.0735 27.469 51.426 30.5005 55.32V55.3123Z" fill="#F37955"/>
<path d="M19.6074 58.3023L21.5534 56.409C21.7395 56.2327 21.7473 55.9414 21.5845 55.7498L4.65955 35.713C4.52 35.5443 4.2719 35.4907 4.07032 35.5827L3.264 35.9583C2.98489 36.0886 2.89186 36.4412 3.07018 36.6865L18.8554 58.2487C19.0337 58.4863 19.3826 58.5169 19.5997 58.31L19.6074 58.3023Z" fill="#4F1B19"/>
<path d="M21.7163 63.1998L26.1045 59.3136C26.2053 59.2216 26.3603 59.2446 26.4301 59.3596L27.1589 60.54C27.2209 60.6397 27.1899 60.7623 27.0969 60.8236L22.4916 63.974C22.4063 64.0277 22.2977 64.02 22.228 63.9587L21.7163 63.5065C21.6232 63.4221 21.6232 63.2765 21.7163 63.1922V63.1998Z" fill="#351011"/>
<path d="M3.69044 38.0348L5.73725 36.7547C5.97759 36.6014 6.05513 36.2871 5.90006 36.0495L3.61291 32.4622C3.42684 32.1632 3.00042 32.1402 2.77558 32.4085L0.728779 34.8231C0.565965 35.0147 0.573718 35.2906 0.728779 35.4823L3.01593 37.9428C3.1865 38.1344 3.46561 38.1804 3.69044 38.0425V38.0348Z" fill="#F37955"/>
<path d="M0.0309825 36.2567L0.627967 36.8699C0.666733 36.9082 0.73651 36.9159 0.775275 36.8699L1.00787 36.6476C1.04663 36.6093 1.05439 36.5479 1.01562 36.5096L0.503919 35.8504C0.465153 35.8044 0.395376 35.7968 0.348858 35.8351L0.0309825 36.1034C-0.0155358 36.1417 -0.0155358 36.2107 0.0309825 36.2567Z" fill="#4F1B19"/>
<path d="M1.5351 37.943L2.23287 38.4336C2.27939 38.4642 2.34917 38.4566 2.38018 38.4106L2.56625 38.15C2.59727 38.104 2.58951 38.0426 2.55075 38.012L1.92275 37.4601C1.87623 37.4218 1.80645 37.4294 1.76769 37.4754L1.51184 37.7974C1.47307 37.8433 1.48083 37.9123 1.5351 37.9507V37.943Z" fill="#4F1B19"/>
<path d="M4.07031 32.3629L4.76809 32.8535C4.81461 32.8841 4.88438 32.8765 4.9154 32.8305L5.10147 32.5699C5.13248 32.5239 5.12473 32.4626 5.08596 32.4319L4.45797 31.88C4.41145 31.8417 4.34167 31.8493 4.30291 31.8953L4.04706 32.2173C4.00829 32.2633 4.01604 32.3323 4.07031 32.3706V32.3629Z" fill="#4F1B19"/>
<path d="M5.41162 34.685L5.85354 35.4132C5.88455 35.4668 5.94658 35.4822 6.00085 35.4515L6.27996 35.2829C6.32648 35.2522 6.34198 35.1986 6.31872 35.1449L5.96984 34.3937C5.94658 34.3401 5.8768 34.3171 5.82253 34.3477L5.45814 34.5393C5.40386 34.57 5.38836 34.639 5.41937 34.685H5.41162Z" fill="#4F1B19"/>
<path d="M27.3915 62.4487C27.3527 62.4028 27.2907 62.3874 27.2364 62.4257L26.5929 62.8933L23.1351 58.6698L24.267 57.612C24.3135 57.5737 24.3135 57.5047 24.267 57.4587C24.2283 57.4127 24.1585 57.4127 24.112 57.4587L22.9878 58.5088L4.31067 35.7049L4.56652 35.4749C4.61304 35.4366 4.61304 35.3676 4.56652 35.3216C4.52775 35.2756 4.45798 35.2756 4.41146 35.3216L3.0004 36.6094C2.95389 36.6477 2.95389 36.7167 3.0004 36.7627C3.02366 36.7857 3.06243 36.801 3.09344 36.7933C3.1167 36.7933 3.13996 36.778 3.15547 36.7627L3.33379 36.6017L21.4061 59.9959L20.1812 61.138C20.1346 61.1763 20.1346 61.2453 20.1812 61.2913C20.2044 61.3143 20.2354 61.3296 20.2742 61.322C20.2975 61.322 20.3207 61.3066 20.3362 61.2913L21.5457 60.1645L24.7167 64.2654L24.3135 64.5567C24.267 64.595 24.2515 64.6563 24.2903 64.71C24.3135 64.7406 24.3523 64.756 24.3911 64.756C24.4066 64.756 24.4298 64.7483 24.4453 64.733L24.8795 64.4187C24.8795 64.4187 24.895 64.4187 24.9028 64.4187C24.9183 64.4187 24.9415 64.411 24.957 64.3957C24.9803 64.3804 24.9958 64.3574 24.9958 64.3267L25.8564 63.7058C25.8564 63.7058 25.8641 63.7058 25.8719 63.7058L26.5697 63.1999L26.6705 63.3226C26.6705 63.3226 26.7325 63.3686 26.7635 63.3609C26.7868 63.3609 26.8023 63.3532 26.8178 63.3379C26.8643 63.2996 26.872 63.2306 26.8333 63.1846L26.7402 63.0696L27.376 62.6097C27.4225 62.5714 27.438 62.5101 27.3993 62.4564L27.3915 62.4487ZM22.8327 58.6545L22.3288 59.122L3.90751 36.0728L4.14786 35.8505L22.8405 58.6545H22.8327ZM3.48885 36.4484L3.7447 36.2184L22.1737 59.2677L21.5612 59.8426L3.48885 36.4484ZM21.693 60.0112L22.3055 59.4363L25.6238 63.5909L24.8718 64.1351L21.6853 60.0112H21.693ZM25.8021 63.4605L22.4683 59.2907L22.9723 58.8154L26.4146 63.016L25.8021 63.4605Z" fill="white"/>
<path d="M3.74472 34.0496C3.71371 34.0036 3.64393 33.9883 3.58966 34.0266L1.81421 35.2607C1.76769 35.2914 1.75219 35.3603 1.79095 35.414C1.81421 35.4447 1.85298 35.46 1.89174 35.46C1.90725 35.46 1.93051 35.4523 1.94601 35.4447L3.72146 34.2106C3.76798 34.1799 3.78349 34.1109 3.74472 34.0573V34.0496Z" fill="white"/>
<path d="M43.1147 49.1416C43.1147 49.1416 38.9358 53.8787 35.5555 56.0786C32.1751 58.2785 30.4307 59.7042 28.6165 59.6123C26.8023 59.5203 26.4224 59.5203 26.9651 60.0492C27.5078 60.5781 28.601 60.3405 28.508 60.5627C28.4149 60.785 25.3835 61.9272 24.74 62.1111C24.0965 62.2951 24.1818 62.962 24.9571 62.8546C25.7324 62.7473 27.6086 62.1265 27.5078 62.4254C27.407 62.7243 25.5463 63.5292 25.0113 63.6825C24.4764 63.8358 24.3911 64.587 25.43 64.4413C26.4689 64.2957 28.1978 63.1842 27.7869 63.7591C27.376 64.334 26.3759 65.0162 25.9184 65.1849C25.461 65.3535 25.3525 65.8824 26.6317 65.6294C27.911 65.3765 28.5312 64.311 28.8646 64.5257C29.198 64.7403 28.5157 65.5835 27.9342 65.8287C27.3527 66.074 27.3528 66.8789 29.4538 65.7368C31.5549 64.5946 30.9657 64.4183 32.6791 63.8051C34.3925 63.1919 37.7651 62.0651 41.8587 59.39C45.9523 56.7148 43.1147 49.1416 43.1147 49.1416Z" fill="#FFB69A"/>
<path d="M31.3378 58.5778L33.8498 63.3839L40.2693 60.7087L37.8349 55.2588L31.3378 58.5778Z" fill="#005B2A"/>
<path d="M36.106 39.8438C36.106 39.8438 42.479 41.9517 45.2235 47.8845C47.9604 53.8174 51.2554 60.8924 43.0992 62.4714C39.8119 63.1076 38.4861 61.5516 37.3387 60.1412C35.633 58.0486 32.9427 58.7921 33.5707 54.9672C34.1987 51.1423 38.4086 50.9506 35.8966 47.026C33.3846 43.1015 32.8419 40.227 36.1137 39.8438H36.106Z" fill="#8FC31F"/>
<path d="M17.8398 43.7607C18.3793 43.7607 18.8167 43.3283 18.8167 42.7949C18.8167 42.2615 18.3793 41.8291 17.8398 41.8291C17.3003 41.8291 16.8629 42.2615 16.8629 42.7949C16.8629 43.3283 17.3003 43.7607 17.8398 43.7607Z" fill="#E4003D"/>
<path d="M19.4835 45.6924C20.023 45.6924 20.4604 45.26 20.4604 44.7266C20.4604 44.1932 20.023 43.7607 19.4835 43.7607C18.944 43.7607 18.5066 44.1932 18.5066 44.7266C18.5066 45.26 18.944 45.6924 19.4835 45.6924Z" fill="#C54090"/>
<path d="M21.7396 47.2246C22.2791 47.2246 22.7165 46.7922 22.7165 46.2588C22.7165 45.7254 22.2791 45.293 21.7396 45.293C21.2001 45.293 20.7627 45.7254 20.7627 46.2588C20.7627 46.7922 21.2001 47.2246 21.7396 47.2246Z" fill="#00993E"/>
<path d="M24.1508 47.7002C24.6903 47.7002 25.1277 47.2678 25.1277 46.7344C25.1277 46.201 24.6903 45.7686 24.1508 45.7686C23.6113 45.7686 23.1739 46.201 23.1739 46.7344C23.1739 47.2678 23.6113 47.7002 24.1508 47.7002Z" fill="#10B8D9"/>
<path d="M26.7868 46.9033C27.3263 46.9033 27.7637 46.4709 27.7637 45.9375C27.7637 45.4041 27.3263 44.9717 26.7868 44.9717C26.2473 44.9717 25.8099 45.4041 25.8099 45.9375C25.8099 46.4709 26.2473 46.9033 26.7868 46.9033Z" fill="#E4003D"/>
<path d="M29.3065 45.9297C29.8461 45.9297 30.2834 45.4973 30.2834 44.9639C30.2834 44.4305 29.8461 43.998 29.3065 43.998C28.767 43.998 28.3297 44.4305 28.3297 44.9639C28.3297 45.4973 28.767 45.9297 29.3065 45.9297Z" fill="#004E9D"/>
<path d="M31.8263 44.7265C32.3658 44.7265 32.8032 44.2941 32.8032 43.7607C32.8032 43.2273 32.3658 42.7949 31.8263 42.7949C31.2868 42.7949 30.8494 43.2273 30.8494 43.7607C30.8494 44.2941 31.2868 44.7265 31.8263 44.7265Z" fill="#C54090"/>
<path d="M34.1987 43.0556C34.7383 43.0556 35.1756 42.6232 35.1756 42.0898C35.1756 41.5564 34.7383 41.124 34.1987 41.124C33.6592 41.124 33.2219 41.5564 33.2219 42.0898C33.2219 42.6232 33.6592 43.0556 34.1987 43.0556Z" fill="#00993E"/>
<path d="M19.0028 39.1153C19.0028 39.1153 17.0723 38.9927 17.4367 40.5257C17.801 42.0587 20.7162 47.1178 25.6316 45.6844C30.5393 44.251 33.9972 41.9591 35.1214 40.2804C36.2456 38.6017 34.1987 37.3063 30.5316 37.8505C26.8644 38.3948 19.0105 39.1153 19.0105 39.1153H19.0028Z" fill="#22AC38"/>
<path d="M3.64393 53.3732C3.64393 53.3732 2.72131 49.6096 2.72131 45.6084C2.72131 40.1968 4.6053 38.2115 4.91543 36.4408C5.22555 34.6701 5.31083 34.3022 5.71399 34.9461C6.11715 35.59 5.64421 36.5864 5.87681 36.5481C6.1094 36.5098 7.9081 33.8346 8.23373 33.2597C8.55936 32.6849 9.19511 32.9071 8.916 33.6353C8.63689 34.3635 7.61349 36.0345 7.93136 35.9962C8.24924 35.9579 9.45096 34.3482 9.72232 33.8653C9.99368 33.3824 10.7535 33.4667 10.3813 34.4402C10.0092 35.4137 8.52835 36.8317 9.18736 36.5634C9.84637 36.2952 10.738 35.4827 11.0016 35.0764C11.2652 34.6701 11.8156 34.6855 11.2807 35.8582C10.7457 37.031 9.56726 37.399 9.69906 37.7669C9.83086 38.1348 10.8155 37.6672 11.1876 37.1537C11.5598 36.6401 12.3506 36.8241 10.7612 38.6024C9.1641 40.3807 9.00904 39.6985 8.14845 41.2852C5.38836 46.3442 13.0019 50.2918 9.45871 53.6492C5.91557 57.0065 3.65168 53.3656 3.65168 53.3656L3.64393 53.3732Z" fill="#FFB69A"/>
<path d="M7.85383 45.4785C5.05498 46.6973 2.72131 45.6088 2.72131 45.6088C2.72131 49.6101 3.64393 53.3737 3.64393 53.3737C3.64393 53.3737 5.90782 57.007 9.45096 53.6573C11.9552 51.2887 8.89274 48.6212 7.85383 45.4785Z" fill="#005B2A"/>
</g>
<defs>
<clipPath id="clip0_3469_17616">
<rect width="54" height="87" fill="white"/>
</clipPath>
</defs>
</svg>
