<svg width="190" height="187" viewBox="0 0 190 187" fill="none" xmlns="http://www.w3.org/2000/svg">
<g clip-path="url(#clip0_3091_9712)">
<path d="M72.1434 187L51.0586 183.227L58.903 175.154L72.1434 187Z" fill="#8FC31F"/>
<path d="M58.9023 175.154C58.9023 175.154 60.5345 160.342 66.1471 147.046L85.6998 154.428C85.6998 154.428 73.7583 172.057 72.1428 187L58.919 175.154H58.9023Z" fill="#F69582"/>
<path d="M59.7031 169.832C60.6691 164.329 62.6177 155.383 66.1485 147.046L85.7011 154.428C85.7011 154.428 77.557 166.455 73.8097 179.042L59.7031 169.832Z" fill="#005B2A"/>
<path d="M154.999 161.314L147.271 181.068L140.742 171.924L154.999 161.314Z" fill="#8FC31F"/>
<path d="M140.744 171.924C125.238 170.013 112.031 157.294 112.031 157.294L121.841 141.823C125.155 147.145 155 161.314 155 161.314L140.744 171.924Z" fill="#F69582"/>
<path d="M133.616 170.31C121.391 166.323 112.031 157.294 112.031 157.294L121.841 141.823C124.023 145.333 137.746 152.681 146.84 157.294L133.616 170.31Z" fill="#005B2A"/>
<path d="M67.4143 133.207C67.4143 133.207 59.9197 143.323 55.5562 150.408C51.1926 157.509 61.0022 163.423 61.0022 163.423L77.99 168.251C77.99 168.251 88.5658 172.304 90.148 165.203C91.7302 158.102 96.5434 149.221 96.5434 149.221C96.5434 149.221 103.072 164.198 107.386 168.251C111.699 172.304 119.627 174.924 125.006 168.053C130.386 161.199 132.318 157.163 135.565 151.314C138.813 145.465 129.436 140.522 122.908 130.241L67.431 133.19L67.4143 133.207Z" fill="#8FC31F"/>
<path d="M86.9491 83.9438C86.9491 83.9438 79.8375 84.0757 69.8447 90.9955C63.2994 95.5263 47.2942 100.189 47.2942 100.189C47.2942 100.189 28.7076 113.122 48.7099 122.926C68.7122 132.729 72.8592 107.142 72.8592 107.142L86.9657 83.9438H86.9491Z" fill="#8FC31F"/>
<path d="M123.205 56.0503C123.205 56.0503 124.554 60.7624 125.487 63.1019C127.086 67.0891 122.223 75.5905 117.21 73.1027C117.21 73.1027 115.378 83.7461 101.954 79.3141C88.5303 74.8821 99.8555 61.998 99.8555 61.998L123.205 56.0503Z" fill="#1E1F1C"/>
<path d="M71.4599 65.8209C71.4599 65.8209 50.1086 67.0401 59.3186 49.2462C59.3186 49.2462 50.2418 43.315 57.0036 33.2812C63.7654 23.2475 66.5301 31.1064 74.8408 26.7403C83.1515 22.3743 82.5353 21.1386 89.7468 19.3098C96.9583 17.4809 93.4275 36.7741 93.4275 36.7741L71.4599 65.8044V65.8209Z" fill="#1E1F1C"/>
<path d="M81.8691 31.1225C81.8691 31.1225 71.2101 32.5394 68.3455 44.8963C65.4809 57.2531 70.1942 54.4193 70.1942 63.5468C70.1942 72.6744 68.562 81.7855 85.35 85.8385C102.138 89.8916 112.797 76.1178 113.213 70.6314C113.213 70.6314 121.824 71.8506 122.223 61.718C122.64 51.5854 112.814 52.5904 109.932 56.2481C109.932 56.2481 104.186 27.4649 81.8525 31.1225H81.8691Z" fill="#F69582"/>
<path d="M121.44 30.7932C121.44 30.7932 116.594 10.1985 88.4308 19.7709C69.2446 26.2788 86.7987 39.2288 96.6249 38.8169C96.6249 38.8169 95.3925 54.8313 111.997 57.4674C111.997 57.4674 116.611 49.4602 121.64 57.4674C121.64 57.4674 139.111 43.9738 121.457 30.7932H121.44Z" fill="#1E1F1C"/>
<path d="M73.7762 57.0719C73.3099 57.0884 72.9102 57.4508 72.9102 57.9286V59.9057C72.9102 60.1199 73.0101 60.3506 73.16 60.5153C73.3099 60.6801 73.5597 60.7789 73.7762 60.7625C74.2425 60.746 74.6422 60.3835 74.6422 59.9057V57.9286C74.6422 57.7144 74.5423 57.4838 74.3924 57.319C74.2425 57.1707 73.9927 57.0554 73.7762 57.0719Z" fill="black"/>
<path d="M91.7489 57.0719C91.2825 57.0884 90.8828 57.4508 90.8828 57.9286V59.9057C90.8828 60.1199 90.9827 60.3506 91.1326 60.5153C91.2825 60.6801 91.5323 60.7789 91.7489 60.7625C92.2152 60.746 92.6149 60.3835 92.6149 59.9057V57.9286C92.6149 57.7144 92.515 57.4838 92.3651 57.319C92.2152 57.1707 91.9654 57.0554 91.7489 57.0719Z" fill="black"/>
<path d="M73.4935 49.3282C73.7267 49.2953 73.9432 49.2293 74.1097 49.0481C74.243 48.8998 74.3429 48.6527 74.3262 48.4385C74.2929 48.0101 73.9099 47.5488 73.4269 47.6147C72.3943 47.7465 71.395 48.0101 70.4457 48.422C70.2292 48.5209 70.046 48.6197 69.9294 48.8504C69.8295 49.0316 69.7962 49.2953 69.8628 49.493C69.9461 49.7071 70.0793 49.9049 70.2958 50.0037C70.479 50.0861 70.7455 50.152 70.9453 50.0696C71.6948 49.7401 72.4776 49.5094 73.2937 49.3612C73.3603 49.3612 73.4269 49.3447 73.4935 49.3282Z" fill="black"/>
<path d="M94.0607 49.3281C94.0774 49.1139 94.0274 48.8833 93.8942 48.702C93.7276 48.5208 93.5444 48.4219 93.3113 48.3725C92.3453 48.1418 91.396 47.9112 90.43 47.6805C90.2301 47.6311 89.947 47.73 89.7971 47.8453C89.6306 47.9771 89.4807 48.2077 89.464 48.4219C89.4474 48.6361 89.4973 48.8668 89.6306 49.048C89.7971 49.2292 89.9803 49.3281 90.2135 49.3775C91.1795 49.6082 92.1288 49.8388 93.0948 50.0695C93.2946 50.1189 93.5777 50.0201 93.7276 49.9048C93.8942 49.7729 94.0441 49.5423 94.0607 49.3281Z" fill="black"/>
<path d="M82.0213 70.9116C84.6028 71.4223 87.3342 70.9445 89.5493 69.5111C90.1821 69.0992 89.5992 68.1107 88.9663 68.5061C87.0177 69.7583 84.6195 70.2361 82.3378 69.7912C82.0213 69.7253 81.7049 69.8736 81.6216 70.2031C81.5383 70.4832 81.7215 70.8457 82.038 70.9116H82.0213Z" fill="#1E1F1C"/>
<path d="M58.9361 30.7931C58.9361 30.7931 36.6355 10.6927 53.7399 10.083C63.4829 9.73706 88.4982 -7.0847 113.347 3.50922C138.196 14.1031 134.199 28.0416 140.361 35.0768C154.701 51.4208 123.207 56.0669 123.207 56.0669C123.207 56.0669 118.443 28.7666 92.6119 26.5259C82.9689 25.6856 78.9218 27.2838 73.7755 28.0911C70.5778 28.6018 65.4148 27.5474 63.5162 27.9757C60.2685 28.7336 58.9361 30.8096 58.9361 30.8096V30.7931Z" fill="#8FC31F"/>
<path d="M58.9361 30.7931C58.9361 30.7931 36.6355 10.6927 53.7399 10.083C63.4829 9.73706 88.4982 -7.0847 113.347 3.50922C138.196 14.1031 134.199 28.0416 140.361 35.0768C154.701 51.4208 123.207 56.0669 123.207 56.0669C123.207 56.0669 118.443 28.7666 92.6119 26.5259C82.9689 25.6856 78.9218 27.2838 73.7755 28.0911C70.5778 28.6018 65.4148 27.5474 63.5162 27.9757C60.2685 28.7336 58.9361 30.8096 58.9361 30.8096V30.7931Z" fill="#8FC31F"/>
<path d="M128.103 55.0127C127.603 52.4425 126.454 48.686 123.939 43.595C118.477 32.5233 106.901 23.7582 90.8797 22.3083C79.2047 21.2538 72.5595 25.6858 69.8281 28.1407C71.2271 28.2231 72.6261 28.2396 73.7753 28.0583C78.9382 27.251 82.9687 25.6529 92.6118 26.4931C118.443 28.7338 123.206 56.0342 123.206 56.0342C123.206 56.0342 125.272 55.7376 128.103 55.0127Z" fill="#FFD028"/>
<path d="M86.9492 83.9442C86.9492 83.9442 84.2511 83.9937 79.8376 85.6577C77.0896 86.6957 72.8593 107.142 72.8593 107.142L71.0106 119.433L59.7188 154.543C59.7188 154.543 71.5269 163.374 90.1469 165.236C108.767 167.097 120.575 163.44 120.575 163.44L118.96 122.942C118.96 122.942 119.659 94.0109 113.147 86.5968C106.635 79.1827 86.9492 83.9442 86.9492 83.9442Z" fill="#FFD028"/>
<path d="M71.0117 119.433L71.5447 115.874C71.5447 115.874 77.8568 111.821 92.6295 112.727C107.402 113.633 118.977 118.346 118.977 118.346V121.542C118.977 121.542 105.42 117.95 92.6295 117.505C79.8387 117.06 71.0117 119.433 71.0117 119.433Z" fill="#6B3022"/>
<path d="M42.6301 75.9987L40.2031 77.8496L40.4878 78.215L42.9148 76.364L42.6301 75.9987Z" fill="#4F1B19"/>
<path d="M44.8362 79.5656L43.4414 81.2891L43.8055 81.5774L45.2002 79.8539L44.8362 79.5656Z" fill="#4F1B19"/>
<path d="M51.5702 74.9496L49.625 76.251L49.8862 76.6331L51.8315 75.3317L51.5702 74.9496Z" fill="#4F1B19"/>
<path d="M48.6428 69.4912L46.8711 72.3784L47.2697 72.6178L49.0414 69.7306L48.6428 69.4912Z" fill="#4F1B19"/>
<path d="M104.52 118.889C111.032 127.259 109.466 139.27 101.006 145.712C92.5453 152.154 80.404 150.605 73.892 142.236C67.3801 133.866 69.5785 122.662 78.0391 116.22C86.4997 109.778 98.0081 110.536 104.52 118.906V118.889Z" fill="#F37955"/>
<path d="M81.1188 125.315L85.2991 121.245C85.6988 120.866 85.7155 120.24 85.3657 119.828L49.0085 76.7607C48.7087 76.3982 48.1758 76.2829 47.7427 76.4806L46.0107 77.2879C45.4111 77.568 45.2112 78.3259 45.5943 78.8531L79.5033 125.199C79.8863 125.71 80.6358 125.776 81.1021 125.331L81.1188 125.315Z" fill="#4F1B19"/>
<path d="M85.6499 135.843L95.0764 127.49C95.293 127.292 95.6261 127.341 95.776 127.589L97.3415 130.126C97.4747 130.34 97.4081 130.604 97.2083 130.735L87.3154 137.507C87.1322 137.622 86.899 137.606 86.7491 137.474L85.6499 136.502C85.45 136.321 85.45 136.008 85.6499 135.826V135.843Z" fill="#351011"/>
<path d="M46.9268 81.7531L51.3236 79.0017C51.8399 78.6722 52.0065 77.9967 51.6734 77.4859L46.7602 69.7753C46.3605 69.1327 45.4445 69.0833 44.9615 69.6599L40.5647 74.8498C40.2149 75.2617 40.2316 75.8548 40.5647 76.2667L45.4778 81.5554C45.8442 81.9673 46.4438 82.0662 46.9268 81.7696V81.7531Z" fill="#F37955"/>
<path d="M39.0671 77.9306L40.3495 79.2486C40.4328 79.331 40.5827 79.3475 40.666 79.2486L41.1656 78.7709C41.2489 78.6885 41.2656 78.5567 41.1823 78.4743L40.0831 77.0574C39.9998 76.9585 39.8499 76.942 39.75 77.0244L39.0671 77.6011C38.9672 77.6835 38.9672 77.8317 39.0671 77.9306Z" fill="#4F1B19"/>
<path d="M42.2973 81.5551L43.7962 82.6095C43.8962 82.6754 44.0461 82.6589 44.1127 82.5601L44.5124 81.9999C44.579 81.9011 44.5624 81.7693 44.4791 81.7034L43.1301 80.5171C43.0301 80.4347 42.8802 80.4512 42.797 80.5501L42.2474 81.242C42.1641 81.3409 42.1807 81.4892 42.2973 81.5715V81.5551Z" fill="#4F1B19"/>
<path d="M47.7426 69.5609L49.2416 70.6154C49.3415 70.6813 49.4914 70.6648 49.558 70.566L49.9577 70.0058C50.0243 69.9069 50.0077 69.7751 49.9244 69.7092L48.5754 68.523C48.4754 68.4406 48.3256 68.4571 48.2423 68.5559L47.6927 69.2479C47.6094 69.3467 47.6261 69.495 47.7426 69.5774V69.5609Z" fill="#4F1B19"/>
<path d="M50.6267 74.5533L51.576 76.1185C51.6426 76.2338 51.7758 76.2668 51.8924 76.2009L52.492 75.8384C52.5919 75.7725 52.6252 75.6572 52.5753 75.5418L51.8258 73.9272C51.7758 73.8119 51.626 73.7624 51.5094 73.8283L50.7266 74.2402C50.61 74.3061 50.5767 74.4544 50.6433 74.5533H50.6267Z" fill="#4F1B19"/>
<path d="M97.8417 134.228C97.7585 134.129 97.6252 134.096 97.5086 134.179L96.1263 135.184L88.6983 126.106L91.1299 123.832C91.2298 123.75 91.2298 123.601 91.1299 123.502C91.0466 123.404 90.8967 123.404 90.7968 123.502L88.3819 125.76L48.2607 76.7441L48.8103 76.2498C48.9102 76.1675 48.9102 76.0192 48.8103 75.9203C48.727 75.8215 48.5771 75.8215 48.4772 75.9203L45.446 78.6883C45.3461 78.7706 45.3461 78.9189 45.446 79.0178C45.496 79.0672 45.5793 79.1002 45.6459 79.0837C45.6959 79.0837 45.7458 79.0507 45.7791 79.0178L46.1622 78.6718L84.9843 128.956L82.3529 131.411C82.2529 131.493 82.2529 131.641 82.3529 131.74C82.4028 131.79 82.4694 131.823 82.5527 131.806C82.6027 131.806 82.6526 131.773 82.686 131.74L85.2841 129.318L92.0959 138.133L91.2298 138.759C91.1299 138.841 91.0966 138.973 91.1799 139.088C91.2298 139.154 91.3131 139.187 91.3964 139.187C91.4297 139.187 91.4796 139.171 91.5129 139.138L92.4456 138.462C92.4456 138.462 92.4789 138.462 92.4956 138.462C92.5289 138.462 92.5788 138.446 92.6122 138.413C92.6621 138.38 92.6954 138.331 92.6954 138.265L94.5441 136.93C94.5441 136.93 94.5608 136.93 94.5774 136.93L96.0763 135.843L96.2928 136.106C96.2928 136.106 96.4261 136.205 96.4927 136.189C96.5427 136.189 96.576 136.172 96.6093 136.139C96.7092 136.057 96.7259 135.909 96.6426 135.81L96.4427 135.563L97.8084 134.574C97.9084 134.492 97.9417 134.36 97.8584 134.245L97.8417 134.228ZM88.0488 126.073L86.9662 127.078L47.3946 77.535L47.9109 77.0572L88.0654 126.073H88.0488ZM46.4953 78.3423L47.0449 77.848L86.6331 127.391L85.3174 128.626L46.4953 78.3423ZM85.6005 128.989L86.9162 127.753L94.0445 136.683L92.429 137.853L85.5839 128.989H85.6005ZM94.4275 136.403L87.266 127.44L88.3485 126.419L95.7432 135.447L94.4275 136.403Z" fill="white"/>
<path d="M47.045 73.1855C46.9783 73.0866 46.8285 73.0537 46.7119 73.136L42.8979 75.7886C42.798 75.8545 42.7647 76.0028 42.848 76.1182C42.8979 76.1841 42.9812 76.217 43.0645 76.217C43.0978 76.217 43.1478 76.2005 43.1811 76.1841L46.995 73.5315C47.0949 73.4656 47.1282 73.3173 47.045 73.202V73.1855Z" fill="white"/>
<path d="M131.617 105.626C131.617 105.626 122.64 115.808 115.379 120.537C108.117 125.265 104.37 128.33 100.473 128.132C96.5755 127.934 95.7595 127.934 96.9253 129.071C98.0911 130.208 100.439 129.697 100.24 130.175C100.04 130.653 93.5277 133.108 92.1454 133.503C90.763 133.898 90.9462 135.332 92.6117 135.101C94.2772 134.87 98.3076 133.536 98.0911 134.178C97.8746 134.821 93.8775 136.551 92.7283 136.881C91.5791 137.21 91.3959 138.825 93.6277 138.512C95.8594 138.199 99.5734 135.81 98.6907 137.045C97.808 138.281 95.6595 139.747 94.6769 140.11C93.6943 140.472 93.4611 141.609 96.2091 141.065C98.9572 140.522 100.29 138.232 101.006 138.693C101.722 139.154 100.256 140.966 99.0071 141.494C97.758 142.021 97.758 143.751 102.271 141.296C106.785 138.841 105.519 138.462 109.2 137.144C112.88 135.826 120.125 133.404 128.919 127.654C137.713 121.904 131.617 105.626 131.617 105.626Z" fill="#FFB69A"/>
<path d="M106.32 125.908L111.716 136.238L125.507 130.488L120.277 118.774L106.32 125.908Z" fill="#005B2A"/>
<path d="M116.56 85.6411C116.56 85.6411 130.25 90.172 136.146 102.924C142.025 115.676 149.104 130.884 131.583 134.278C124.521 135.645 121.673 132.3 119.208 129.269C115.544 124.771 109.765 126.369 111.114 118.148C112.463 109.926 121.507 109.515 116.111 101.079C110.714 92.6433 109.549 86.4649 116.577 85.6411H116.56Z" fill="#8FC31F"/>
<path d="M77.3211 94.0606C78.4801 94.0606 79.4196 93.1312 79.4196 91.9846C79.4196 90.8381 78.4801 89.9087 77.3211 89.9087C76.1622 89.9087 75.2227 90.8381 75.2227 91.9846C75.2227 93.1312 76.1622 94.0606 77.3211 94.0606Z" fill="#E4003D"/>
<path d="M80.8524 98.2124C82.0114 98.2124 82.9509 97.283 82.9509 96.1365C82.9509 94.99 82.0114 94.0605 80.8524 94.0605C79.6934 94.0605 78.7539 94.99 78.7539 96.1365C78.7539 97.283 79.6934 98.2124 80.8524 98.2124Z" fill="#C54090"/>
<path d="M85.7001 101.507C86.859 101.507 87.7985 100.578 87.7985 99.4314C87.7985 98.2849 86.859 97.3555 85.7001 97.3555C84.5411 97.3555 83.6016 98.2849 83.6016 99.4314C83.6016 100.578 84.5411 101.507 85.7001 101.507Z" fill="#00993E"/>
<path d="M90.8797 102.529C92.0387 102.529 92.9782 101.599 92.9782 100.453C92.9782 99.3064 92.0387 98.377 90.8797 98.377C89.7208 98.377 88.7812 99.3064 88.7812 100.453C88.7812 101.599 89.7208 102.529 90.8797 102.529Z" fill="#10B8D9"/>
<path d="M96.5399 100.815C97.6989 100.815 98.6384 99.886 98.6384 98.7395C98.6384 97.593 97.6989 96.6636 96.5399 96.6636C95.3809 96.6636 94.4414 97.593 94.4414 98.7395C94.4414 99.886 95.3809 100.815 96.5399 100.815Z" fill="#E4003D"/>
<path d="M101.954 98.7232C103.113 98.7232 104.052 97.7937 104.052 96.6472C104.052 95.5007 103.113 94.5713 101.954 94.5713C100.795 94.5713 99.8555 95.5007 99.8555 96.6472C99.8555 97.7937 100.795 98.7232 101.954 98.7232Z" fill="#004E9D"/>
<path d="M107.368 96.1363C108.527 96.1363 109.467 95.2068 109.467 94.0603C109.467 92.9138 108.527 91.9844 107.368 91.9844C106.209 91.9844 105.27 92.9138 105.27 94.0603C105.27 95.2068 106.209 96.1363 107.368 96.1363Z" fill="#C54090"/>
<path d="M112.462 92.5445C113.621 92.5445 114.56 91.615 114.56 90.4685C114.56 89.322 113.621 88.3926 112.462 88.3926C111.303 88.3926 110.363 89.322 110.363 90.4685C110.363 91.615 111.303 92.5445 112.462 92.5445Z" fill="#00993E"/>
<path d="M79.8181 84.0761C79.8181 84.0761 75.671 83.8125 76.4538 87.1076C77.2366 90.4028 83.4988 101.277 94.0578 98.1958C104.6 95.1149 112.028 90.1886 114.443 86.5804C116.858 82.9722 112.461 80.1878 104.584 81.3576C96.7059 82.5274 79.8347 84.0761 79.8347 84.0761H79.8181Z" fill="#22AC38"/>
<path d="M46.8296 114.721C46.8296 114.721 44.8477 106.631 44.8477 98.0306C44.8477 86.3987 48.8947 82.1315 49.5609 78.3256C50.2271 74.5197 50.4103 73.7289 51.2764 75.1128C52.1424 76.4968 51.1265 78.6386 51.6261 78.5563C52.1258 78.4739 55.9897 72.7238 56.6891 71.4882C57.3886 70.2525 58.7543 70.7303 58.1548 72.2955C57.5552 73.8607 55.3568 77.4524 56.0396 77.37C56.7225 77.2876 59.3039 73.8277 59.8869 72.7897C60.4698 71.7518 62.1019 71.933 61.3025 74.0254C60.5031 76.1178 57.322 79.1659 58.7377 78.5892C60.1533 78.0126 62.0686 76.2661 62.6349 75.3929C63.2011 74.5197 64.3836 74.5526 63.2344 77.0734C62.0853 79.5942 59.5538 80.3851 59.8369 81.1759C60.12 81.9667 62.2352 80.9617 63.0346 79.8578C63.834 78.754 65.5328 79.1494 62.1186 82.9718C58.6877 86.7941 58.3546 85.3278 56.5059 88.7383C50.5769 99.6123 66.9318 108.097 59.3206 115.314C51.7094 122.53 46.8462 114.704 46.8462 114.704L46.8296 114.721Z" fill="#FFB69A"/>
<path d="M55.8731 97.7505C49.8607 100.37 44.8477 98.0306 44.8477 98.0306C44.8477 106.631 46.8296 114.721 46.8296 114.721C46.8296 114.721 51.6927 122.53 59.3039 115.33C64.6834 110.239 58.1048 104.506 55.8731 97.7505Z" fill="#005B2A"/>
</g>
<defs>
<clipPath id="clip0_3091_9712">
<rect width="116" height="187" fill="white" transform="translate(39)"/>
</clipPath>
</defs>
</svg>
