<svg width="190" height="187" viewBox="0 0 190 187" fill="none" xmlns="http://www.w3.org/2000/svg">
<g clip-path="url(#clip0_3091_9438)">
<path d="M178.868 80.1288C178.113 71.4925 173.29 64.3831 152.471 61.0828C131.669 57.7826 112.967 35.4529 112.967 35.4529C112.967 35.4529 108.685 37.1112 96.1016 32.2676V149.384L116.215 157.889C143.514 157.889 168.959 139.319 174.291 125.856C179.623 112.392 170.239 102.738 170.239 102.738C177.342 95.6283 179.623 88.7652 178.868 80.1288Z" fill="#FFD028"/>
<path d="M123.352 62.5115C111.77 58.0455 77.974 25.2569 74.6928 26.4719C67.8353 29.0168 65.3088 33.5813 65.3088 33.5813C52.1186 38.1458 49.0672 50.3451 49.8382 64.4818C50.5929 78.6349 59.4848 89.6849 49.8382 94.2658C40.1917 98.8466 29.7905 114.33 40.7003 131.586C51.61 148.859 73.4296 151.141 73.4296 151.141L100.286 150.796L123.352 62.5115Z" fill="#F79620"/>
<path d="M76.25 159.991L93.722 162.158L92.9838 183.815L77.3 187L80.4827 179.152C80.4827 179.152 76.7914 172.749 76.25 159.975V159.991Z" fill="#B28247"/>
<path d="M80.482 179.152L80.0391 178.282L93.1308 179.53L93.0816 180.728L80.482 179.152Z" fill="#C9A063"/>
<path d="M80.482 179.152L80.0391 180.236L88.6684 184.701L90.6535 184.291L80.482 179.152Z" fill="#C9A063"/>
<path d="M100.352 159.975L114.871 150.008L128.668 166.723L119.038 179.513L116.232 171.517C116.232 171.517 109.227 169.169 100.368 159.975H100.352Z" fill="#B28247"/>
<path d="M116.231 171.517L115.312 171.156L125.927 163.406L126.698 164.326L116.231 171.517Z" fill="#C9A063"/>
<path d="M116.23 171.517L116.608 172.617L126.008 170.236L127.239 168.611L116.23 171.517Z" fill="#C9A063"/>
<path d="M23.1133 93.1983L77.8918 113.377L73.9052 90.4564L24.557 83.7246L23.1133 93.1983Z" fill="#FFB69A"/>
<path d="M122.58 98.1733C122.58 98.1733 131.259 108.123 138.28 112.753C145.302 117.384 148.927 120.388 152.684 120.191C156.441 119.994 157.245 119.994 156.113 121.111C154.981 122.227 152.717 121.735 152.898 122.178C153.078 122.621 159.394 125.051 160.723 125.429C162.052 125.806 161.888 127.218 160.264 126.989C158.64 126.759 154.751 125.462 154.965 126.086C155.178 126.709 159.033 128.401 160.149 128.729C161.265 129.057 161.445 130.634 159.279 130.322C157.114 130.01 153.537 127.678 154.391 128.893C155.244 130.108 157.327 131.537 158.262 131.881C159.197 132.226 159.443 133.343 156.786 132.817C154.128 132.292 152.848 130.059 152.143 130.502C151.438 130.946 152.865 132.719 154.079 133.244C155.293 133.77 155.293 135.444 150.913 133.047C146.549 130.634 147.779 130.272 144.203 128.992C140.626 127.711 133.637 125.33 125.139 119.715C116.641 114.1 108.422 103.345 108.422 103.345L122.531 98.1733H122.58Z" fill="#FFB69A"/>
<path d="M77.7125 86.122C77.7125 86.122 67.4097 89.2909 59.7647 88.2565C52.1196 87.2221 33.1055 84.6279 33.1055 84.6279L35.271 114.675L64.0958 108.829L62.3076 120.848L37.6006 142.735C37.6006 142.735 60.4373 165.869 93.8885 163.767C127.34 161.666 138.889 145.148 138.889 145.148L110.95 121.686L128.718 133.376C128.718 133.376 142.892 121.374 145.599 108.813C145.599 108.813 109.359 95.957 103.059 88.7162C96.7595 81.4755 77.7289 86.122 77.7289 86.122H77.7125Z" fill="#F9F8DC"/>
<path d="M77.7109 86.1217L81.7795 102.015L99.4813 86.1217C99.4813 86.1217 89.3097 81.4094 77.7109 86.1217Z" fill="#E4003D"/>
<path d="M33.0859 84.6113V115.151L44.2254 114.149L38.6475 85.2352L33.0859 84.6113Z" fill="#E4003D"/>
<path d="M145.501 108.813L151.128 111.522C151.128 111.522 146.108 126.513 133.443 136.971L127.422 128.631L145.501 108.813Z" fill="#E4003D"/>
<path d="M81.7781 82.0829L80.5312 87.1235C80.5312 87.1235 81.3351 90.4237 86.831 89.4878C92.3269 88.5519 92.048 86.8936 92.048 86.8936L90.4403 80.7529L81.7781 82.0829Z" fill="#F69582"/>
<path d="M76.9087 29.9199C76.9087 29.9199 66.9997 31.9395 64.7685 40.2474C62.5373 48.5554 63.9646 53.4154 63.7514 57.0605C63.5381 60.7055 59.9124 78.7335 76.9087 82.789C93.905 86.8444 106.258 75.9094 106.258 75.9094L105.044 35.6009L76.9087 29.9363V29.9199Z" fill="#FFB69A"/>
<path d="M86.8179 55.2217C85.8664 55.2381 85.0625 55.5829 85.0625 56.059V57.9965C85.0625 58.2099 85.2594 58.4398 85.5711 58.5876C85.8828 58.7353 86.375 58.8338 86.8179 58.8338C87.7694 58.8174 88.5733 58.4726 88.5733 57.9965V56.059C88.5733 55.8456 88.3764 55.6157 88.0647 55.468C87.753 55.3202 87.2609 55.2217 86.8179 55.2217Z" fill="black"/>
<path d="M69.3296 55.2217C68.3781 55.2381 67.5742 55.5829 67.5742 56.059V57.9965C67.5742 58.2099 67.7711 58.4398 68.0828 58.5876C68.3945 58.7353 68.8867 58.8338 69.3296 58.8338C70.2812 58.8174 71.085 58.4726 71.085 57.9965V56.059C71.085 55.8456 70.8882 55.6157 70.5765 55.468C70.2647 55.3202 69.7726 55.2217 69.3296 55.2217Z" fill="black"/>
<path d="M65.3907 49.1135C66.9164 48.6866 68.4585 48.3418 70.0335 48.0955C70.3288 48.0463 70.5092 47.6687 70.4272 47.406C70.3452 47.0776 70.0335 46.9626 69.7382 47.0119C68.1796 47.2582 66.6211 47.603 65.0954 48.0299C64.3899 48.2269 64.6852 49.327 65.3907 49.1135Z" fill="black"/>
<path d="M85.3547 47.8331C87.2741 47.9972 89.1608 48.3092 91.031 48.7361C91.7365 48.9003 92.0482 47.8166 91.3263 47.6524C89.3576 47.1927 87.3562 46.8808 85.3547 46.7001C85.043 46.6673 84.7969 46.9793 84.7969 47.2584C84.7969 47.5868 85.0594 47.8002 85.3547 47.8166V47.8331Z" fill="black"/>
<path d="M75.5633 65.9102C77.6633 66.5177 79.878 66.5506 82.0108 66.0416C82.7162 65.8774 82.4209 64.7773 81.7155 64.9579C79.796 65.4177 77.7781 65.3684 75.8751 64.8266C75.1696 64.6295 74.8743 65.7132 75.5798 65.9102H75.5633Z" fill="black"/>
<path d="M74.6758 26.4881C74.6758 26.4881 80.3357 40.6741 98.5624 44.7131C98.5624 44.7131 87.6363 68.0773 98.5624 80.605C98.5624 80.605 104.436 84.2171 103.419 92.5251C102.401 100.833 94.3134 124.115 119.808 129.796C145.302 135.477 151.586 103.871 145.515 91.9176C139.445 79.9646 119.414 49.5896 116.576 42.2995C113.738 35.0095 102.204 14.5515 74.6758 26.5045V26.4881Z" fill="#FFD028"/>
<path d="M95.2648 131.898L92.8203 163.816L107.897 161.977L95.2648 131.898Z" fill="#E4003D"/>
<path d="M110.934 131.898L124.977 156.067L129.045 153.111L110.934 131.898Z" fill="#E4003D"/>
<path d="M74.4135 131.898L66.4403 159.958L57.2695 156.067L74.4135 131.898Z" fill="#E4003D"/>
<path d="M58.8947 129.254L45.7702 149.368L41.5703 146.626L58.8947 129.254Z" fill="#E4003D"/>
<path d="M63.1756 126.102C66.4374 126.102 69.0816 123.456 69.0816 120.191C69.0816 116.927 66.4374 114.28 63.1756 114.28C59.9138 114.28 57.2695 116.927 57.2695 120.191C57.2695 123.456 59.9138 126.102 63.1756 126.102Z" fill="#C9A063"/>
<path d="M74.4139 130.158C77.6757 130.158 80.3199 127.511 80.3199 124.247C80.3199 120.982 77.6757 118.336 74.4139 118.336C71.152 118.336 68.5078 120.982 68.5078 124.247C68.5078 127.511 71.152 130.158 74.4139 130.158Z" fill="#C9A063"/>
<path d="M86.2928 131.849C89.5546 131.849 92.1988 129.203 92.1988 125.938C92.1988 122.674 89.5546 120.027 86.2928 120.027C83.0309 120.027 80.3867 122.674 80.3867 125.938C80.3867 129.203 83.0309 131.849 86.2928 131.849Z" fill="#C9A063"/>
<path d="M97.9568 130.158C101.219 130.158 103.863 127.511 103.863 124.247C103.863 120.982 101.219 118.336 97.9568 118.336C94.695 118.336 92.0508 120.982 92.0508 124.247C92.0508 127.511 94.695 130.158 97.9568 130.158Z" fill="#C9A063"/>
<path d="M19.1919 32.4722C23.0065 32.4722 26.0987 29.3774 26.0987 25.5598C26.0987 21.7422 23.0065 18.6475 19.1919 18.6475C15.3774 18.6475 12.2852 21.7422 12.2852 25.5598C12.2852 29.3774 15.3774 32.4722 19.1919 32.4722Z" fill="#E4003D"/>
<path d="M16.6968 10.7992C16.9921 13.5083 17.4023 14.0502 15.4336 16.2339C13.4649 18.4176 10.6103 18.7952 9.24865 23.8523C7.88698 28.9257 9.82285 31.3065 13.3993 33.9664C16.9757 36.6262 19.8467 40.731 19.8467 40.731C19.8467 40.731 21.4381 37.48 24.4567 33.1947C27.4754 28.9093 30.7237 22.8015 29.9034 19.2878C29.0831 15.7742 25.6871 13.9352 22.2419 13.771C18.7968 13.6068 18.0257 13.6725 18.5014 11.7351C18.9772 9.79765 19.0592 7.61393 18.6163 5.08541C18.1733 2.55689 18.4194 2.35986 20.3553 4.36298C22.2912 6.36609 25.7199 7.99157 30.6581 11.3739C35.5962 14.7726 36.1375 19.7968 34.0048 24.4434C31.8721 29.0899 23.8333 35.7724 22.1763 43.8013C20.5193 51.8302 24.6044 52.4541 26.6387 55.114C28.673 57.7738 27.4261 59.6949 26.8519 67.7237C26.2777 75.7526 25.2934 96.145 25.3426 122.941C25.3918 149.736 25.2606 174.02 25.3426 178.387C25.4082 182.755 24.7684 183.395 23.6856 184.561C22.6029 185.727 21.5037 183.937 21.6349 177.78C21.7662 171.623 21.5529 131.593 21.5201 121.397C21.4873 111.201 21.4381 83.8636 21.0935 73.5853C20.749 63.307 19.2725 58.2664 17.0578 55.5737C14.843 52.881 16.0406 52.7168 16.8445 50.0898C17.6484 47.4627 19.0592 44.6058 15.6633 40.2877C12.2673 35.9695 7.69011 36.462 4.03165 28.3839C0.373187 20.3058 7.31278 14.6905 10.3314 11.7351C13.3501 8.77968 14.5641 6.07055 15.6141 6.44818C16.664 6.82582 16.6804 10.7992 16.6804 10.7992H16.6968Z" fill="#6B3022"/>
<path d="M21.2258 145.943C21.2258 145.943 22.686 146.387 23.8015 146.272C24.9171 146.157 25.3601 145.943 25.3601 145.943C25.3601 145.943 26.0819 146.485 25.3601 147.405C25.3601 147.405 24.7367 147.832 23.3094 147.7C21.8821 147.569 21.2587 147.323 21.2587 147.323C21.2587 147.323 20.6024 146.567 21.2258 145.943Z" fill="#FCBF16"/>
<path d="M21.1602 143.103C21.1602 143.103 22.5219 143.678 23.8015 143.579C25.0812 143.48 25.4093 143.251 25.4093 143.251C25.4093 143.251 26.0491 143.694 25.3601 144.712C25.3601 144.712 24.3757 145.204 22.9484 145.073C21.5211 144.942 21.1766 144.581 21.1766 144.581C21.1766 144.581 20.5204 143.71 21.1438 143.086L21.1602 143.103Z" fill="#FCBF16"/>
<path d="M20.5058 69.0044C20.5058 69.0044 22.819 69.4477 24.6072 69.3328C26.3954 69.2178 27.1009 69.0044 27.1009 69.0044C27.1009 69.0044 28.2493 69.5462 27.1009 70.4657C27.1009 70.4657 26.1165 70.8926 23.8362 70.7612C21.5558 70.6299 20.5714 70.3836 20.5714 70.3836C20.5714 70.3836 19.5215 69.6283 20.5222 69.0044H20.5058Z" fill="#FCBF16"/>
<path d="M20.3898 66.1639C20.3898 66.1639 22.5718 66.7385 24.6061 66.64C26.6404 66.5415 27.1654 66.3117 27.1654 66.3117C27.1654 66.3117 28.1661 66.755 27.0998 67.7729C27.0998 67.7729 25.5412 68.2655 23.2772 68.1342C21.0133 68.0028 20.4555 67.6416 20.4555 67.6416C20.4555 67.6416 19.4055 66.7714 20.3898 66.1475V66.1639Z" fill="#FCBF16"/>
<path d="M29.4602 82.8383C30.4282 82.8712 31.2156 83.7249 30.9203 85.2519C30.625 86.7953 29.7883 92.1479 28.5907 92.3942C27.3931 92.6404 26.7041 92.0165 26.6384 90.4403C26.5728 88.8641 26.6384 82.707 29.4602 82.8219V82.8383Z" fill="#F69582"/>
<path d="M16.8293 83.9382C17.7644 83.2486 19.2901 82.5919 21.669 82.2799C24.0478 81.968 26.5579 82.9531 26.9024 83.5113C27.2469 84.0696 26.9844 85.2517 26.361 85.6786C27.3125 86.5981 27.1156 87.9773 26.0493 88.6669C26.6235 89.6684 26.3282 90.5387 25.5735 91.0148C26.0493 92.2791 25.4423 93.5433 24.6876 93.9702C23.9329 94.3971 19.5362 94.6762 18.2894 94.2822C17.0426 93.8881 17.1574 92.3283 18.0269 91.6387C16.9441 90.67 17.1574 89.6028 17.6988 88.9953C16.3699 88.4042 16.3863 87.1728 17.1246 86.4339C15.8614 85.9085 15.8778 84.6114 16.8129 83.9218L16.8293 83.9382Z" fill="#FFB69A"/>
<path d="M26.3599 85.6789L19.8633 85.9744C19.8633 85.9744 20.6836 84.7594 22.7999 84.743C24.9162 84.7102 26.3763 85.6789 26.3763 85.6789H26.3599Z" fill="#F69582"/>
<path d="M26.0638 88.6671L19.4688 88.9955C19.4688 88.9955 20.1578 88.2895 22.2905 87.9447C24.4397 87.5999 26.0638 88.6835 26.0638 88.6835V88.6671Z" fill="#F69582"/>
<path d="M25.5896 91.0312C25.5896 91.0312 21.7999 91.6552 19.1094 91.6223C20.5203 92.6731 22.0296 92.6075 23.703 92.2791C24.8021 92.0656 25.5896 91.0312 25.5896 91.0312Z" fill="#F69582"/>
</g>
<defs>
<clipPath id="clip0_3091_9438">
<rect width="176" height="187" fill="white" transform="translate(3)"/>
</clipPath>
</defs>
</svg>
