<svg width="193" height="191" viewBox="0 0 193 191" fill="none" xmlns="http://www.w3.org/2000/svg">
<g clip-path="url(#clip0_3091_9248)">
<path d="M60.3083 129.224L37.9967 133.276L37.3652 154.678C37.3652 154.678 64.417 152.652 69.7266 154.678C75.0363 156.704 95.3534 170.508 95.3534 170.508L112.067 159.363L102.973 142.899L86.4257 134.793L60.3083 129.222V129.224Z" fill="#3D3A39"/>
<path d="M81.2305 136.018C81.2305 136.018 82.4955 152.272 85.6548 155.185C88.8163 158.098 106.64 145.6 106.64 145.6L102.595 138.215L81.2305 136.016V136.018Z" fill="#A0A0B9"/>
<path d="M134.619 48.6138L124.697 54.5356L128.405 64.1759L138.7 53.3559L134.619 48.6138Z" fill="#3D3A39"/>
<path d="M129.2 51.8492C129.2 51.8492 128.428 41.9374 143.538 41.5015C158.65 41.0655 162.479 51.1332 162.125 59.0062C161.77 66.8792 166.06 75.5642 177.93 75.1432C189.799 74.7222 196.589 84.6147 191.024 91.1669C185.458 97.7192 180.334 97.9158 184.684 102.993C184.684 102.993 179.685 105.368 177.712 94.6504C175.737 83.9351 171.426 88.7884 155.168 88.1131C138.911 87.4378 137.191 76.4361 136.609 66.4496C136.029 56.4652 137.852 54.7064 134.252 54.2234L129.2 51.847V51.8492Z" fill="#B81C25"/>
<path d="M46.6543 82.431L64.1811 108.456L73.77 88.699L54.6199 70.4634L46.6543 82.431Z" fill="#3D3A39"/>
<path d="M70.3568 93.2871L69.2773 97.5634L73.9257 104.896H102.902L103.574 99.0914L70.3568 93.2871Z" fill="#3D3A39"/>
<path d="M41.1574 131.124V155.44L20.8041 158.098L16 137.14L23.7117 140.179C23.7117 140.179 29.2731 134.037 41.1574 131.124Z" fill="#A0A0B9"/>
<path d="M112.864 156.833L125.979 170.51L110.684 189L109.705 179.503C109.705 179.503 97.9332 176.045 92.4785 170.512L112.862 156.835L112.864 156.833Z" fill="#A0A0B9"/>
<path d="M57.8794 128.021L47.7656 130.491C47.7656 130.491 48.1091 140.369 50.8908 143.536C53.6726 146.701 69.2773 133.152 69.2773 133.152L57.8794 128.023V128.021Z" fill="#A0A0B9"/>
<path d="M95.3529 140.179C95.3529 140.179 85.1496 139.636 71.3069 134.873C57.4643 130.111 57.8802 128.021 57.8802 128.021V123.841L74.91 101.528H76.0918L95.3529 137.138V140.177V140.179Z" fill="#D2D2D2"/>
<path d="M69.2769 93.2871C69.2769 93.2871 67.2973 93.8278 64.1806 100.857C61.0661 107.885 57.9153 123.272 57.879 123.843C57.8427 124.413 69.2769 120.804 69.2769 120.804L74.9087 101.53L69.2769 93.2871Z" fill="#A0A0B9"/>
<path d="M76.0915 101.53L71.3066 120.992L95.3526 137.14L103.574 102.023L76.0915 101.53Z" fill="#A0A0B9"/>
<path d="M112.864 156.833L114.366 158.399L96.4293 172.094L97.0799 174.015C97.0799 174.015 94.2171 172.442 92.4785 170.512L112.862 156.835L112.864 156.833Z" fill="#D2D2D2"/>
<path d="M41.1573 155.44V131.124C41.1573 131.124 37.9403 131.898 35.7324 132.81L38.4459 133.721L38.8683 155.739L41.1594 155.44H41.1573Z" fill="#D2D2D2"/>
<path d="M71.8772 92.6012C66.8683 87.7073 65.2897 81.1807 67.5552 73.9937C72.4425 58.4829 69.9807 60.5537 78.8508 49.2593C87.7208 37.9649 104.768 35.3748 120.4 46.7418C138.932 60.216 131.871 91.4301 112.068 99.5573C109.126 100.765 71.8772 92.6012 71.8772 92.6012Z" fill="#A0A0B9"/>
<path d="M109.705 73.8781L108.758 90.0728C108.758 90.0728 75.0846 87.0574 64.7639 85.2473C64.7639 85.2473 60.4313 70.9909 75.4025 50.7871C75.4025 50.7871 86.4484 65.1568 109.705 73.876V73.8781Z" fill="#D2D2D2"/>
<path d="M109.613 90.1075C114.826 87.8907 117.258 81.8599 115.046 76.6374C112.833 71.4148 106.813 68.9782 101.6 71.195C96.3863 73.4119 93.954 79.4427 96.1669 84.6652C98.3798 89.8878 104.4 92.3244 109.613 90.1075Z" fill="#44547F"/>
<path d="M112.992 83.6061C111.36 87.69 106.733 89.6775 102.656 88.0426C98.5795 86.4078 96.5956 81.7725 98.2275 77.6886C99.8595 73.6046 104.486 71.6171 108.563 73.252C112.64 74.8869 114.624 79.5222 112.992 83.6061Z" fill="#D2D2D2"/>
<path d="M69.2773 89.4595V95.3471L109.705 103.216L112.864 99.2152L69.2773 89.4595Z" fill="#D2D2D2"/>
<path d="M35.2227 62.5646L45.3279 87.1174L60.3075 72.3524L40.0118 57.0317L35.2227 62.5646Z" fill="#A0A0B9"/>
<path d="M73.7713 56.876C73.7713 56.876 70.3581 61.725 68.4617 67.993C66.5652 74.261 66.3945 80.6466 66.3945 80.6466L92.9236 83.7603C92.9236 83.7603 91.8805 81.1958 92.9236 77.3021C93.9668 73.4083 95.3534 72.6796 95.3534 72.6796C95.3534 72.6796 89.8475 69.8758 82.9699 65.1828C76.0923 60.4898 73.7734 56.876 73.7734 56.876H73.7713Z" fill="#A0A0B9"/>
<path d="M79.4516 60.5923C79.4516 60.5923 74.0118 69.397 73.4785 82.6105L76.4651 82.9909C76.4651 82.9909 76.7978 70.5489 81.8217 62.7593L79.4516 60.5923Z" fill="#D2D2D2"/>
<path d="M87.323 66.4731C87.323 66.4731 83.1077 74.0726 83.0117 83.7599L85.9513 84.2343C85.9513 84.2343 84.6245 78.2505 89.8381 67.5182L87.323 66.4731Z" fill="#D2D2D2"/>
<path d="M42.8413 48.8554L66.1919 1L47.4769 11.3391L37.6191 46.0985L42.8413 48.8554Z" fill="#A0A0B9"/>
<path d="M68.2831 21.4731L66.1904 1L42.8398 48.8554L47.5266 51.3301L68.2831 21.4731Z" fill="#D2D2D2"/>
<path d="M55.5119 59.9296C56.2457 58.5939 57.0756 57.2989 57.8777 55.9953L48.1842 50.5927L37.9233 44.3226L29.4159 39.2812C28.2788 40.6725 27.1951 42.162 26.2672 43.7328L35.598 50.3833L29.514 66.5566L28.1252 65.8236L25.8555 70.3585L35.3975 74.4681L37.0785 70.553L35.5234 69.7323L45.2275 55.0101L55.5076 59.9296H55.5119Z" fill="#FCBF16"/>
<path d="M43.9478 58.2944C44.671 58.865 44.8011 59.9378 43.7302 60.9551C42.6593 61.9723 39.0627 65.6118 38.0067 65.1395C36.9486 64.6672 36.7737 63.8145 37.5907 62.5686C38.4077 61.3227 41.8572 56.6468 43.9478 58.2944Z" fill="#44547F"/>
<path d="M33.6694 52.159C34.7701 52.1462 36.2975 52.4839 38.29 53.561C40.2824 54.638 41.6626 56.7751 41.62 57.4034C41.5773 58.0317 40.724 58.7882 40.0115 58.7626C40.2291 59.9978 39.3267 60.9403 38.1257 60.889C38.0041 61.9746 37.3151 62.4768 36.4682 62.4362C36.1397 63.6757 34.9685 64.3019 34.1536 64.21C33.3408 64.1181 29.8274 61.9062 29.0871 60.9146C28.3469 59.923 29.2983 58.7925 30.3479 58.7455C30.0471 57.4098 30.7959 56.7046 31.5574 56.5443C30.8663 55.3668 31.5489 54.4243 32.5281 54.2598C31.854 53.1656 32.5707 52.174 33.6694 52.1612V52.159Z" fill="#A0A0B9"/>
<path d="M40.0124 58.7604L34.8691 55.3967C34.8691 55.3967 36.1598 54.9223 37.7938 56.0677C39.4279 57.2132 40.0124 58.7604 40.0124 58.7604Z" fill="#44547F"/>
<path d="M38.1251 60.8869L32.8965 57.4869C32.8965 57.4869 33.8138 57.3202 35.6441 58.2413C37.4744 59.1623 38.1251 60.8869 38.1251 60.8869Z" fill="#44547F"/>
<path d="M36.4678 62.4321C36.4678 62.4321 33.2253 60.8207 31.1816 59.3013C31.6808 60.887 32.884 61.6691 34.3346 62.3423C35.2881 62.7847 36.4678 62.4342 36.4678 62.4342V62.4321Z" fill="#44547F"/>
<path d="M149.379 106.934L115.868 92.4302L82.3568 106.934C82.3568 106.934 75.0355 149.802 115.29 171.536C115.484 171.44 115.676 171.341 115.868 171.243C116.06 171.341 116.252 171.438 116.446 171.536C156.701 149.802 149.379 106.934 149.379 106.934Z" fill="#FDD219"/>
<path d="M143.9 111.029L115.867 98.897L87.8341 111.029C87.8341 111.029 81.7096 146.889 115.385 165.071C115.547 164.99 115.707 164.909 115.869 164.828C116.031 164.909 116.189 164.99 116.354 165.071C150.029 146.889 143.904 111.029 143.904 111.029H143.9Z" fill="#ED9127"/>
<path d="M150.761 113.869C150.731 111.576 150.62 109.245 150.257 106.973C150.3 106.757 150.251 106.537 150.085 106.366C149.961 106.186 149.773 106.095 149.57 106.075C141.893 102.752 134.213 99.4291 126.536 96.1059C123.208 94.6656 119.88 93.2252 116.552 91.7848C115.867 91.4877 115.421 91.6779 114.781 91.9558C113.369 92.567 111.955 93.1782 110.543 93.7915C101.491 97.7087 92.4399 101.626 83.3885 105.543C82.9021 105.753 81.6222 106.05 81.5134 106.71C81.4302 107.208 81.3705 107.71 81.3129 108.212C80.9886 111.038 80.9161 113.893 80.9886 116.733C81.2318 126.422 83.4611 136.058 87.7105 144.776C90.4944 150.486 94.2468 155.696 98.6669 160.244C101.103 162.75 103.782 165.007 106.59 167.082C108.213 168.283 109.905 169.39 111.626 170.444C112.529 170.995 113.448 171.517 114.374 172.03C115.052 172.406 115.334 172.433 115.865 172.205C116.396 172.433 116.674 172.401 117.356 172.03C118.284 171.523 119.197 170.989 120.104 170.444C121.975 169.32 123.779 168.089 125.533 166.792C128.566 164.548 131.391 162.03 133.981 159.286C138.548 154.446 142.243 148.81 144.971 142.743C149.029 133.725 150.889 123.74 150.761 113.867V113.869ZM148.529 123.245C147.117 135.287 142.364 146.868 134.491 156.117C129.441 162.045 123.199 166.811 116.407 170.561C115.995 170.395 115.739 170.395 115.328 170.561C102.447 163.441 92.2394 152.563 86.966 138.706C83.6765 130.064 82.3219 120.657 82.7933 111.431C82.8488 110.326 82.9384 109.221 83.0643 108.121C83.1048 107.762 83.1155 107.693 83.1368 107.539C85.8567 106.362 88.5745 105.186 91.2943 104.009C99.486 100.463 107.676 96.918 115.867 93.3748C126.777 98.0956 137.688 102.818 148.598 107.539C149.342 112.29 149.12 118.212 148.532 123.245H148.529Z" fill="#FCBF16"/>
<path d="M128.38 143.752C121.893 150.251 111.374 150.251 104.887 143.752C98.3997 137.253 98.3997 126.715 104.887 120.216C111.374 113.718 121.893 113.718 128.38 120.216C134.868 126.715 134.868 137.253 128.38 143.752Z" fill="#FDD219"/>
<path d="M125.489 131.966H106.277V137.98H125.489V131.966Z" fill="#00B6D9"/>
<path d="M125.489 125.952H106.277V131.966H125.489V125.952Z" fill="#E5003C"/>
</g>
<defs>
<clipPath id="clip0_3091_9248">
<rect width="177" height="188" fill="white" transform="translate(16 1)"/>
</clipPath>
</defs>
</svg>
