<svg width="191" height="191" viewBox="0 0 191 191" fill="none" xmlns="http://www.w3.org/2000/svg">
<g clip-path="url(#clip0_3091_9038)">
<path d="M94.4277 71.4517C94.4277 71.4517 119.594 69.5617 132.004 88.7186C144.413 107.875 163.98 109.856 163.98 109.856L158.336 117.567C158.336 117.567 142.143 113.893 136.831 103.173C131.519 92.4532 127.888 89.1873 117.082 82.9428C106.277 76.6983 94.4277 79.8886 94.4277 79.8886V71.4517Z" fill="#10B8D9"/>
<path d="M98.2417 68.5339C98.2417 68.5339 106.868 60.0214 119.126 60.8379C131.369 61.6544 141.205 77.8931 160.273 79.7075C179.341 81.5068 190.177 77.3337 190.177 77.3337V87.9327C190.177 87.9327 174.12 94.8576 154.447 88.7189C134.774 82.5954 127.373 60.7774 111.983 65.9938C100.663 69.8191 98.2266 76.3055 98.2266 76.3055V68.549L98.2417 68.5339Z" fill="#10B8D9"/>
<path d="M141.766 70.2878C141.766 70.2878 133.306 81.0532 128.403 82.4593C123.5 83.8655 121.094 82.6861 118.824 79.4353C116.554 76.1846 116.009 69.6982 120.291 66.78C124.574 63.8619 138.754 62.1685 138.754 62.1685L141.766 70.2878Z" fill="#036EB8"/>
<path d="M10.7246 69.1384C10.7246 69.1384 19.1841 79.9038 24.0873 81.3099C28.9905 82.7161 31.3967 81.5367 33.6667 78.2859C35.9367 75.0352 36.4815 68.5487 32.1988 65.6306C27.9161 62.7125 13.7361 61.019 13.7361 61.019L10.7246 69.1384Z" fill="#036EB8"/>
<path d="M140.553 62.1682L92.2175 78.7698L56.1548 78.9361L11.3299 59.2954L8.5 66.4925L50.8128 99.9376C52.9012 107.18 57.8195 117.31 57.8195 117.31L54.9139 125.218L102.69 122.708L104.46 96.7171L142.581 70.1666L140.584 62.1682H140.553Z" fill="#1E1F1C"/>
<path d="M138.041 54.215L128.311 15.8408C128.311 15.8408 136.392 16.5363 140.13 31.8074C143.868 47.0785 145.336 54.6082 145.336 54.6082L138.026 54.215H138.041Z" fill="#A3A3BD"/>
<path d="M136.27 58.6603L135.922 54.6082L148.301 53.0811L149.073 56.3318L146.288 58.1613L147.393 76.3808L148.286 76.8948L148.437 78.8C148.437 78.8 148.952 81.0679 145.365 81.0679C141.778 81.0679 142.066 79.0267 142.066 79.0267L142.217 77.288L142.565 77.1065L138.646 58.872L136.3 58.7056L136.27 58.6603Z" fill="#FCBF16"/>
<path d="M136.802 60.3086C135.879 60.6261 135.364 61.6391 136.075 63.0301C136.787 64.4212 139.102 69.3049 140.313 69.2142C141.538 69.1235 142.008 68.3372 141.629 66.795C141.251 65.2679 139.45 59.4014 136.787 60.2935L136.802 60.3086Z" fill="#0E4E7C"/>
<path d="M149.212 57.8287C148.122 57.4205 146.473 57.2239 144.112 57.6019C141.736 57.9799 139.617 59.6128 139.436 60.2479C139.254 60.8829 139.844 61.9413 140.555 62.1681C139.905 63.3172 140.465 64.5722 141.69 64.9502C141.433 66.069 141.948 66.8099 142.795 67.0669C142.689 68.4126 143.643 69.4559 144.475 69.6524C145.307 69.849 149.605 68.8813 150.695 68.1556C151.784 67.4298 151.224 65.9632 150.195 65.5549C150.967 64.3302 150.468 63.3626 149.756 62.9392C150.861 62.0169 150.513 60.8376 149.59 60.3235C150.649 59.4768 150.286 58.2369 149.181 57.8287H149.212Z" fill="#036EB8"/>
<path d="M140.554 62.1682L146.865 60.626C146.865 60.626 145.745 59.7037 143.702 60.2631C141.674 60.8226 140.539 62.1682 140.539 62.1682H140.554Z" fill="#0E4E7C"/>
<path d="M141.689 64.9502L148.106 63.408C148.106 63.408 147.243 62.9242 145.094 63.1963C142.946 63.4685 141.689 64.9502 141.689 64.9502Z" fill="#0E4E7C"/>
<path d="M142.81 67.067C142.81 67.067 146.609 66.5982 149.181 65.812C148.122 67.2182 146.654 67.5659 144.959 67.7322C143.854 67.8381 142.795 67.067 142.795 67.067H142.81Z" fill="#0E4E7C"/>
<path d="M127.373 66.6892L132.261 77.3336L133.971 76.1391L129.431 65.9937L127.373 66.6892Z" fill="#0E4E7C"/>
<path d="M123.559 68.0044L128.659 79.8433L126.949 81.0377L121.758 68.6243L123.559 68.0044Z" fill="#0E4E7C"/>
<path d="M136.922 147.822C136.922 147.822 129.037 139.28 122.137 134.23C115.236 129.18 104.249 124.024 104.249 124.024L102.872 123.842L56.9878 124.024C56.9878 124.024 45.9858 129.195 39.1002 134.23C32.2145 139.265 24.3149 147.822 24.3149 147.822L15.5527 147.505L27.7199 166.677C27.7199 166.677 39.1607 158.981 46.7425 155.851C54.3243 152.721 59.4999 148.911 78.5981 146.552C97.6813 144.194 106.928 152.721 114.509 155.851C122.091 158.981 133.532 166.677 133.532 166.677L145.699 147.505L136.937 147.822H136.922Z" fill="#1E1F1C"/>
<path d="M55.8385 64.4967C55.8385 64.4967 36.4981 65.6156 44.8517 49.3466C44.8517 49.3466 36.6343 43.9186 42.7633 34.7559C48.8923 25.5933 51.3893 32.7601 58.9106 28.7836C66.4318 24.792 65.8719 23.658 72.4095 21.9797C78.9471 20.3014 75.7388 37.9614 75.7388 37.9614L55.8385 64.5118V64.4967Z" fill="#D3D3D3"/>
<path d="M65.2502 32.7449C65.2502 32.7449 55.5952 34.0452 53.0074 45.3548C50.4044 56.6645 54.672 54.0639 54.672 62.41C54.672 70.7562 53.189 79.0872 68.398 82.8067C83.6069 86.5262 93.262 73.9162 93.6252 68.8965C93.6252 68.8965 101.419 70.0153 101.782 60.7468C102.145 51.4784 93.2469 52.4007 90.6591 55.7422C90.6591 55.7422 85.4532 29.4185 65.2351 32.76L65.2502 32.7449Z" fill="#F69582"/>
<path d="M14.4486 53.0661L24.1793 14.6919C24.1793 14.6919 16.0981 15.3874 12.3602 30.6585C8.62223 45.9295 7.1543 53.4592 7.1543 53.4592L14.4637 53.0661H14.4486Z" fill="#A3A3BD"/>
<path d="M16.2188 57.5114L16.5669 53.4592L4.18781 51.9321L3.41602 55.1829L6.20055 57.0124L5.09581 75.2318L4.20295 75.7459L4.05161 77.651C4.05161 77.651 3.53708 79.919 7.12368 79.919C10.7103 79.919 10.4227 77.8778 10.4227 77.8778L10.2714 76.139L9.92334 75.9576L13.8429 57.723L16.1885 57.5567L16.2188 57.5114Z" fill="#FCBF16"/>
<path d="M15.7052 59.1748C16.6284 59.4923 17.1429 60.5053 16.4316 61.8964C15.7204 63.2874 13.405 68.1711 12.1943 68.0804C10.9685 67.9897 10.4994 67.2034 10.8777 65.6612C11.256 64.1341 13.0569 58.2676 15.7204 59.1597L15.7052 59.1748Z" fill="#0E4E7C"/>
<path d="M3.28051 56.6798C4.3701 56.2715 6.01964 56.075 8.38043 56.453C10.7564 56.831 12.875 58.4639 13.0566 59.099C13.2382 59.734 12.648 60.7924 11.9368 61.0192C12.5875 62.1683 12.0276 63.4232 10.8018 63.8012C11.059 64.9201 10.5445 65.661 9.69703 65.918C9.80297 67.2637 8.84957 68.3069 8.01723 68.5035C7.1849 68.7001 2.88704 67.7324 1.79744 67.0066C0.707841 66.2809 1.26777 64.8143 2.29684 64.406C1.52504 63.1813 2.02444 62.2136 2.73571 61.7903C1.63097 60.868 1.97904 59.6886 2.90217 59.1745C1.84284 58.3278 2.20604 57.088 3.31077 56.6798H3.28051Z" fill="#036EB8"/>
<path d="M11.9375 61.0193L5.62695 59.4771C5.62695 59.4771 6.74682 58.5548 8.78982 59.1142C10.8177 59.6736 11.9527 61.0193 11.9527 61.0193H11.9375Z" fill="#0E4E7C"/>
<path d="M10.8013 63.8013L4.38477 62.2591C4.38477 62.2591 5.24736 61.7753 7.3963 62.0474C9.54523 62.3196 10.8013 63.8013 10.8013 63.8013Z" fill="#0E4E7C"/>
<path d="M9.68167 65.918C9.68167 65.918 5.88321 65.4493 3.31055 64.6631C4.36988 66.0692 5.83781 66.417 7.53274 66.5833C8.63747 66.6891 9.69681 65.918 9.69681 65.918H9.68167Z" fill="#0E4E7C"/>
<path d="M53.2054 64.6629C53.2054 64.6629 52.0401 66.825 53.2054 74.8839C54.3707 82.9428 57.6243 87.131 57.6243 87.131L100.754 80.7202L101.087 64.4966L53.2054 64.6629Z" fill="#10B8D9"/>
<path d="M101.086 32.4579C101.086 32.4579 96.6975 13.6185 71.1827 22.3729C53.8097 28.3302 69.6996 40.169 78.598 39.791C78.598 39.791 77.4782 54.4422 92.5207 56.8462C92.5207 56.8462 96.6975 49.5282 101.253 56.8462C101.253 56.8462 117.067 44.5084 101.086 32.4579Z" fill="#D3D3D3"/>
<path d="M57.9276 56.4834C57.5038 56.4985 57.1406 56.8311 57.1406 57.2696V59.084C57.1406 59.2806 57.2314 59.4922 57.3676 59.6434C57.5038 59.7946 57.7308 59.8853 57.9276 59.8702C58.3513 59.8551 58.7145 59.5225 58.7145 59.084V57.2696C58.7145 57.073 58.6237 56.8614 58.4875 56.7102C58.3513 56.5741 58.1243 56.4683 57.9276 56.4834Z" fill="black"/>
<path d="M74.2108 56.4834C73.787 56.4985 73.4238 56.8311 73.4238 57.2696V59.084C73.4238 59.2806 73.5146 59.4922 73.6508 59.6434C73.787 59.7946 74.014 59.8853 74.2108 59.8702C74.6345 59.8551 74.9977 59.5225 74.9977 59.084V57.2696C74.9977 57.073 74.9069 56.8614 74.7707 56.7102C74.6345 56.5741 74.4075 56.4683 74.2108 56.4834Z" fill="black"/>
<path d="M57.2457 50.012C57.4424 50.1028 57.6391 50.1481 57.851 50.0876C58.0326 50.0423 58.2293 49.8911 58.3201 49.7248C58.5017 49.377 58.4412 48.8327 58.0326 48.6513C57.17 48.2581 56.2771 47.9709 55.354 47.8348C55.1421 47.8045 54.9454 47.8045 54.7487 47.9104C54.5822 48.0011 54.4309 48.1977 54.3855 48.3791C54.3401 48.5757 54.3552 48.8025 54.4611 48.9839C54.5671 49.1502 54.7335 49.3165 54.9303 49.3468C55.6718 49.4526 56.3831 49.6492 57.0641 49.9364C57.1246 49.9667 57.17 49.9818 57.2305 50.012H57.2457Z" fill="black"/>
<path d="M76.116 48.0616C76.0101 47.8953 75.8436 47.7441 75.6469 47.6988C75.435 47.6534 75.2534 47.6988 75.0416 47.7744C74.2244 48.1372 73.4072 48.485 72.5748 48.8479C72.4084 48.9235 72.257 49.1503 72.2116 49.3166C72.1662 49.498 72.1814 49.7551 72.2873 49.9214C72.3932 50.0877 72.5597 50.2389 72.7564 50.2843C72.9683 50.3296 73.1499 50.2843 73.3618 50.2087C74.179 49.8458 74.9962 49.498 75.8285 49.1351C75.995 49.0596 76.1463 48.8328 76.1917 48.6664C76.2371 48.485 76.222 48.228 76.116 48.0616Z" fill="black"/>
<path d="M38.5398 132.657L36.981 148.699L28.7939 154.717L15.5371 147.505L24.2993 147.822C24.2993 147.822 27.6892 139.748 38.5246 132.657H38.5398Z" fill="#0E4E7C"/>
<path d="M52.7812 108.586L53.9768 117.809L52.7812 125.793C52.7812 125.793 56.8067 130.253 72.6059 131.054C88.4051 131.856 104.386 122.617 104.386 122.617V106.228C104.386 106.228 95.2453 109.342 89.2071 106.787C82.6695 104.02 78.9014 95.5832 70.5932 95.9158C63.2989 96.2031 60.9078 109.342 52.7812 108.601V108.586Z" fill="#0E4E7C"/>
<path d="M74.6037 132.34C73.9227 132.34 73.2265 132.324 72.5455 132.294C56.4134 131.478 52.0399 126.821 51.8583 126.624C51.4043 126.11 51.4345 125.324 51.9491 124.87C52.4485 124.417 53.2354 124.447 53.6894 124.946C53.7802 125.037 57.8965 129.059 72.6666 129.815C87.9058 130.586 103.599 121.635 103.766 121.544C104.356 121.196 105.112 121.408 105.46 121.998C105.809 122.587 105.597 123.343 105.006 123.691C104.371 124.054 89.858 132.34 74.6037 132.34Z" fill="#036EB8"/>
<path d="M53.4626 109.856C53.2053 109.856 52.948 109.856 52.6756 109.826C51.9946 109.765 51.4952 109.161 51.5558 108.48C51.6163 107.8 52.2216 107.301 52.9026 107.361C56.5043 107.694 58.8954 104.625 61.4378 101.374C63.9348 98.1533 66.5377 94.8421 70.5632 94.6757C76.1474 94.4641 79.7794 97.7451 83.2752 100.935C85.3787 102.856 87.3763 104.655 89.7069 105.653C95.2305 107.996 103.917 105.093 103.993 105.063C104.643 104.836 105.355 105.184 105.567 105.834C105.794 106.484 105.445 107.18 104.795 107.407C104.401 107.543 95.1397 110.642 88.7383 107.921C85.9992 106.772 83.7595 104.73 81.5954 102.75C78.3266 99.7711 75.2394 96.9588 70.654 97.1403C67.7787 97.2461 65.6449 99.9828 63.39 102.886C60.8325 106.167 57.9571 109.856 53.4626 109.856Z" fill="#036EB8"/>
<path d="M28.7944 155.957C28.5977 155.957 28.3859 155.911 28.2043 155.805L19.321 150.967C18.7157 150.634 18.4887 149.878 18.8216 149.289C19.1545 148.684 19.8961 148.472 20.5014 148.79L28.6885 153.25L35.786 148.034L37.2994 132.551C37.3599 131.871 37.9804 131.372 38.6614 131.432C39.3424 131.493 39.8418 132.113 39.7812 132.793L38.2225 148.835C38.1922 149.183 38.0106 149.5 37.7231 149.712L29.536 155.73C29.3241 155.896 29.0668 155.972 28.7944 155.972V155.957Z" fill="#036EB8"/>
<path d="M122.697 132.657L124.256 148.699L132.443 154.717L145.7 147.505L136.938 147.822C136.938 147.822 133.548 139.748 122.712 132.657H122.697Z" fill="#0E4E7C"/>
<path d="M132.443 155.957C132.64 155.957 132.852 155.911 133.033 155.805L141.916 150.967C142.522 150.634 142.749 149.878 142.416 149.289C142.083 148.684 141.341 148.472 140.736 148.79L132.549 153.25L125.451 148.034L123.938 132.551C123.877 131.871 123.257 131.372 122.576 131.432C121.895 131.493 121.396 132.113 121.456 132.793L123.015 148.835C123.045 149.183 123.227 149.5 123.514 149.712L131.701 155.73C131.913 155.896 132.171 155.972 132.443 155.972V155.957Z" fill="#036EB8"/>
<path d="M25.1782 65.3584L20.2902 75.8214L18.7012 74.5664L23.2109 64.5117L25.1782 65.3584Z" fill="#0E4E7C"/>
<path d="M28.7944 66.9463L24.0879 78.8305L25.4348 79.8889L30.6255 67.7476L28.7944 66.9463Z" fill="#0E4E7C"/>
</g>
<defs>
<clipPath id="clip0_3091_9038">
<rect width="189" height="152" fill="white" transform="translate(1.19141 14.6919)"/>
</clipPath>
</defs>
</svg>
